<svg width="481" height="300" viewBox="0 0 481 300" fill="none" xmlns="http://www.w3.org/2000/svg">
<g clip-path="url(#clip0_161_111)">
<path d="M589.162 303.24C560.46 320.015 529.866 335.027 496.712 340.988C463.624 346.9 427.49 342.714 401.649 324.132C370.793 301.932 357.294 262.014 321.869 246.258C298.935 236.069 271.691 238.258 245.86 239C219.964 239.74 191.81 237.983 173.223 222.166C139.905 193.804 154.066 135.221 117.784 110.007C93.8282 93.3947 59.5647 99.4737 29.2376 96.6141C-9.12409 92.9731 -44.6009 72.8871 -64.7493 43.3638C-84.8976 13.8405 -89.2816 -24.5388 -76.4616 -58.329" stroke="#FDCFA5" stroke-miterlimit="10"/>
<path d="M585.516 307.5C556.952 324.022 526.371 338.622 493.424 344.229C473.549 347.641 452.561 347.41 433.412 342.653C420.904 339.56 409.176 334.482 399.014 327.292C368.212 305.403 354.1 266.341 319.536 250.098C307.246 244.332 293.868 241.982 279.92 241.16C268.112 240.459 255.944 240.829 243.978 241C227.198 241.268 209.34 240.728 193.756 236.296C185.126 233.846 177.185 230.233 170.47 224.961C157.226 214.629 150.754 200.038 145.678 184.515C138.293 162.164 133.64 137.792 116.368 121.504C114.541 119.743 112.515 118.13 110.356 116.564C86.6069 99.5973 53.8231 104.179 25.2833 100.349C-2.67212 96.5369 -28.6222 83.2075 -47.9855 63.346C-53.5804 57.5956 -58.5721 51.2984 -62.9641 44.5573C-70.8167 32.3941 -76.4139 18.8628 -79.6564 4.8943C-84.5587 -15.8794 -84.2954 -37.5642 -78.2462 -57.3053" stroke="#FDCFA5" stroke-miterlimit="10"/>
<path d="M581.928 311.812C553.439 328.028 522.937 342.218 490.128 347.572C470.324 350.833 449.533 350.505 430.514 345.752C418.071 342.661 406.405 337.688 396.241 330.55C365.492 309.023 350.898 270.769 317.129 254.089C304.976 248.122 291.939 245.268 278.134 244.038C266.404 242.979 254.179 243.09 242.151 243.155C225.248 243.213 207.26 242.669 191.471 238.539C182.772 236.241 174.757 232.884 167.773 227.861C154.185 218.135 146.969 204.396 141.153 189.621C132.692 168.369 126.583 144.772 109.059 128.27C107.167 126.506 105.207 124.844 103.049 123.278C79.4392 106.007 48.2649 109.097 21.5158 104.192C-4.65235 99.4086 -28.5673 85.4768 -46.6799 65.1414C-51.9449 59.2474 -56.7368 52.8022 -60.9288 45.9131C-68.5132 33.5012 -74.1685 19.7619 -77.7972 5.67747C-83.2138 -15.2679 -84.2543 -36.8412 -79.8454 -56.1214" stroke="#FDCFA5" stroke-miterlimit="10"/>
<path d="M578.343 316.073C549.993 332.035 519.504 345.814 486.835 350.864C467.168 353.922 446.574 353.549 427.685 348.801C415.371 345.714 403.769 340.795 393.601 333.76C362.842 312.542 347.701 275.094 314.725 258.028C302.775 251.81 290.014 248.501 276.286 246.913C264.632 245.496 252.414 245.401 240.263 245.256C223.237 245.104 205.054 244.554 189.125 240.728C180.291 238.58 172.14 235.425 165.014 230.757C151.015 221.637 143.185 208.805 136.566 194.724C126.964 174.516 119.396 151.799 101.686 135.033C99.794 133.27 97.8356 131.556 95.6791 129.939C72.2115 112.311 42.5819 113.906 17.6849 108.032C-6.76087 102.275 -28.5109 87.7454 -45.5008 66.8804C-50.4361 60.8427 -54.9614 54.2002 -59.0202 47.2125C-66.3346 34.5004 -72.0497 20.6045 -75.9996 6.40639C-81.9955 -14.7127 -84.2749 -36.1725 -81.5081 -54.9403" stroke="#FFC087" stroke-miterlimit="10"/>
<path d="M574.756 320.335C546.481 335.991 516.071 349.36 483.605 354.159C464.073 357.067 443.612 356.596 424.853 351.852C412.605 348.767 401.065 343.902 390.957 337.023C360.188 316.114 344.566 279.475 312.383 261.971C300.57 255.551 288.149 251.79 274.566 249.743C262.988 248.02 250.715 247.613 238.44 247.31C221.291 246.948 202.976 246.444 186.779 242.867C177.872 240.924 169.587 237.918 162.254 233.604C147.845 225.089 139.403 213.061 131.976 199.829C121.298 180.719 112.274 158.779 94.2457 141.795C92.3557 139.981 90.3324 138.265 88.2408 136.65C64.9782 118.72 36.8283 118.818 13.7204 111.921C-8.93816 105.193 -28.5882 90.0629 -44.3906 68.6705C-48.9944 62.4376 -53.2565 55.7008 -57.1803 48.563C-64.2265 35.602 -69.998 21.4467 -74.3358 7.1842C-80.911 -14.1087 -84.3642 -35.4528 -83.3027 -53.7617" stroke="#F29137" stroke-miterlimit="10"/>
<path d="M571.169 324.648C542.967 340.049 512.636 353.008 480.31 357.503C460.913 360.261 440.652 359.641 421.956 354.951C409.773 351.868 398.297 347.057 388.25 340.283C357.536 319.685 341.302 283.85 309.977 265.963C298.303 259.289 286.221 255.076 272.715 252.671C261.213 250.589 248.885 249.923 236.548 249.515C219.34 248.945 200.766 248.432 184.429 245.16C175.388 243.366 167.028 240.616 159.556 236.607C144.737 228.696 135.616 217.522 127.449 205.039C115.697 186.975 105.151 165.86 86.934 148.664C84.979 146.848 83.0224 145.082 80.9325 143.416C57.81 125.182 31.2064 123.734 9.95063 115.867C-10.9838 108.114 -28.4706 92.4374 -43.1521 70.5668C-47.4262 64.1903 -51.4217 57.2562 -55.2123 50.0197C-61.9902 36.81 -67.8197 22.4466 -72.4806 8.12192C-79.5717 -13.2911 -84.3271 -34.5753 -84.906 -52.4233" stroke="#F29137" stroke-miterlimit="10"/>
<path d="M567.578 328.907C539.514 344.055 509.198 356.551 477.011 360.792C457.749 363.401 437.621 362.682 419.12 357.999C407.066 354.92 395.653 350.162 385.604 343.491C354.879 323.202 338.163 288.176 307.631 269.902C296.095 262.976 284.354 258.31 270.925 255.547C259.498 253.159 247.18 252.184 234.718 251.616C217.387 250.836 198.683 250.32 182.142 247.298C173.031 245.657 164.535 243.108 156.856 239.453C141.692 232.149 131.828 221.826 122.921 210.091C110.027 193.124 98.0903 172.787 79.6209 155.377C77.6659 153.56 75.6444 151.793 73.5561 150.075C50.5755 131.484 25.5164 128.542 6.04969 119.652C-13.0975 110.928 -28.5475 94.5972 -41.9782 72.2528C-45.9225 65.7326 -49.7182 58.6505 -53.3088 51.2661C-59.8167 37.7562 -65.7061 23.2362 -70.7531 8.79569C-78.4236 -12.7911 -84.4178 -33.9618 -86.637 -51.3488" stroke="#F29137" stroke-miterlimit="10"/>
<path d="M563.925 333.219C535.937 348.059 505.7 360.146 473.716 364.136C454.59 366.543 434.659 365.78 416.223 361.098C404.234 358.022 392.884 353.318 382.895 346.803C352.223 326.876 334.964 292.554 305.29 273.896C293.892 266.717 282.489 261.65 269.205 258.428C257.855 255.681 245.479 254.499 232.957 253.775C215.504 252.784 196.603 252.313 179.924 249.545C170.678 248.053 162.043 245.758 154.225 242.355C138.651 235.656 128.172 226.24 118.463 215.2C104.494 199.279 91.0994 179.77 72.3121 162.143C70.3589 160.275 68.3373 158.508 66.2491 156.79C43.4085 137.895 19.8958 133.406 2.28126 123.548C-15.1419 113.799 -28.4287 96.9208 -40.7368 74.0468C-44.3496 67.3315 -47.8821 60.1551 -51.336 52.569C-57.5757 38.8104 -63.4566 24.0331 -68.8915 9.52816C-77.0763 -12.2303 -84.3725 -33.341 -88.2338 -50.2156" stroke="#F29137" stroke-miterlimit="10"/>
<path d="M560.34 337.477C532.426 352.062 502.267 363.739 470.423 367.425C451.367 369.679 431.635 368.819 413.393 364.144C401.468 361.121 390.248 356.421 380.19 350.008C349.507 330.39 331.768 296.824 302.885 277.832C291.624 270.452 280.498 264.879 267.356 261.3C256.081 258.247 243.65 256.753 231.004 255.871C213.427 254.67 194.397 254.194 177.448 251.726C168.131 250.387 159.36 248.293 151.336 245.245C135.352 239.15 124.195 230.588 113.745 220.297C98.6349 205.471 83.7845 186.738 64.8092 168.899C62.856 167.031 60.8361 165.212 58.7495 163.443C36.1157 144.194 14.0194 138.155 -1.67965 127.381C-17.4437 116.604 -28.5023 99.1822 -39.6895 75.8299C-42.9725 68.971 -46.2384 61.5973 -49.5591 53.9126C-55.5305 39.9052 -61.4695 24.9198 -67.2906 10.299C-76.0547 -11.6332 -84.5897 -32.6303 -90.0914 -49.044" stroke="#F29137" stroke-miterlimit="10"/>
<path d="M556.754 341.744C528.979 356.025 498.769 367.288 467.128 370.722C448.208 372.827 428.608 371.868 410.497 367.198C398.701 364.179 387.478 359.582 377.483 353.222C346.79 333.913 328.569 301.156 300.481 281.726C289.358 274.093 278.572 268.067 265.509 264.079C254.311 260.668 241.888 258.917 229.117 257.875C211.417 256.465 192.257 255.984 175.103 253.819C165.652 252.63 156.742 250.789 148.643 248.047C132.248 242.557 120.413 234.848 109.223 225.306C93.0388 211.527 76.7308 193.622 57.5027 175.568C55.4845 173.698 53.4663 171.827 51.4447 170.06C28.951 150.507 8.40272 142.87 -5.51079 131.176C-19.549 119.323 -28.4444 101.354 -38.4458 77.5261C-41.399 70.5234 -44.4651 63.0018 -47.5858 55.1692C-53.289 40.913 -59.2861 25.7196 -65.4284 10.9851C-74.7718 -11.1209 -84.5457 -32.0045 -91.6877 -47.9572" stroke="#F29137" stroke-miterlimit="10"/>
<path d="M553.166 346.051C525.465 360.077 495.333 370.93 463.898 374.063C445.113 375.966 425.712 374.911 407.664 370.294C395.933 367.277 384.773 362.734 374.838 356.53C344.2 337.532 325.499 305.532 298.137 285.766C287.218 277.881 276.707 271.401 263.785 267.057C252.664 263.288 240.183 261.329 227.352 260.131C209.53 258.51 190.175 258.023 172.88 256.162C163.359 255.125 154.311 253.538 146.006 251.098C129.202 246.213 116.753 239.36 104.759 230.563C87.433 217.88 69.6693 200.751 50.1865 182.535C48.17 180.613 46.1518 178.743 44.067 176.922C21.7151 157.013 2.64817 147.827 -9.34819 135.166C-21.6624 122.288 -28.3946 103.773 -37.2733 79.415C-39.8951 72.2173 -42.6963 64.5498 -45.6837 56.6185C-51.1169 42.0621 -57.1722 26.6607 -63.7024 11.8619C-73.5601 -10.4158 -84.6377 -31.188 -93.4202 -46.6797" stroke="#FDCFA5" stroke-miterlimit="10"/>
<path d="M549.579 350.312C521.953 364.031 491.901 374.475 460.603 377.355C441.954 379.107 422.686 377.954 404.833 373.343C393.167 370.329 382.135 365.841 372.196 359.741C341.549 341.051 322.369 309.757 295.796 289.708C285.015 281.57 274.844 274.637 262.001 269.884C250.955 265.808 238.42 263.537 225.529 262.183C207.648 260.354 188.097 259.912 170.599 258.302C160.943 257.416 151.823 256.031 143.312 253.946C126.097 249.666 112.97 243.666 100.236 235.618C81.7705 223.979 62.6126 207.731 42.8785 189.249C40.8621 187.327 38.779 185.455 36.7608 183.584C14.549 163.371 -2.96822 152.536 -13.1807 139.007C-23.7025 125.003 -28.3381 105.99 -36.0327 81.208C-38.3247 73.8665 -40.861 66.0533 -43.7135 57.9719C-48.8785 43.1667 -54.9918 27.5572 -61.8433 12.6447C-72.2803 -9.8067 -84.5967 -30.4653 -95.0195 -45.4962" stroke="#FDCFA5" stroke-miterlimit="10"/>
<path d="M545.989 354.623C518.501 368.089 488.462 378.121 457.305 380.696C438.791 382.298 419.721 381.048 401.932 376.44C390.331 373.427 379.363 368.993 369.486 362.998C338.891 344.671 319.168 314.08 293.388 293.645C282.745 285.254 272.914 277.869 260.148 272.757C249.179 268.323 236.652 265.795 223.57 264.332C205.566 262.292 185.82 261.844 168.117 260.537C158.326 259.8 149.068 258.669 140.416 256.888C122.727 253.21 108.987 248.066 95.5126 240.767C75.9056 230.224 55.2918 214.752 35.3698 196.057C33.2884 194.133 31.272 192.212 29.2555 190.29C7.24868 169.774 -8.71879 157.29 -17.1474 142.892C-25.9435 127.812 -28.4175 108.304 -34.9895 82.9923C-36.95 75.4557 -39.2864 67.4945 -41.9407 59.3166C-46.8374 44.2627 -53.0088 28.4452 -60.2465 13.4168C-71.2628 -9.20839 -84.8181 -29.7535 -96.8813 -44.3234" stroke="#FDCFA5" stroke-miterlimit="10"/>
<path d="M542.339 358.886C514.927 372.045 484.966 381.667 454.012 383.991C435.635 385.392 416.697 384.095 399.103 379.493C387.632 376.485 376.726 372.105 366.844 366.264C336.239 348.246 316.101 318.413 291.048 297.642C280.545 288.947 271.051 281.212 258.429 275.641C247.537 270.849 234.954 268.062 221.812 266.441C203.685 264.192 183.809 263.74 165.901 262.734C156.04 262.15 146.645 261.22 137.854 259.744C119.753 256.723 105.336 252.381 91.1218 245.829C70.4401 236.333 48.3688 221.689 28.1289 202.778C26.0493 200.802 24.0328 198.88 22.0163 196.959C0.15131 176.087 -14.2682 162.006 -20.848 146.741C-27.8516 130.536 -28.229 110.53 -33.6801 84.7399C-35.3108 77.0597 -37.3825 68.9526 -39.9018 60.6246C-44.5285 45.2705 -50.758 29.2449 -58.3204 14.2058C-69.851 -8.591 -84.7101 -29.0247 -98.4153 -43.0821" stroke="#FFD3BD" stroke-miterlimit="10"/>
<path d="M538.753 363.151C511.414 376.055 481.534 385.216 450.718 387.287C432.411 388.536 413.673 387.091 396.207 382.544C384.801 379.539 373.959 375.212 364.073 369.474C333.523 351.767 312.906 322.64 288.577 301.584C278.278 292.637 269.059 284.448 256.514 278.519C245.697 273.42 233.058 270.373 219.857 268.545C201.608 266.085 181.535 265.678 163.489 264.926C153.493 264.491 143.959 263.815 135.028 262.643C116.517 260.227 101.421 256.738 86.4659 250.987C64.6429 242.586 41.1807 228.721 20.688 209.595C18.6083 207.619 16.5286 205.644 14.5788 203.673C-7.14615 182.496 -19.951 166.768 -24.8101 150.582C-30.0231 133.302 -28.3039 112.799 -32.5692 86.5327C-33.8701 78.7088 -35.6752 70.4045 -38.0612 61.9778C-42.4197 46.375 -48.7074 30.1413 -56.6559 14.9863C-68.7658 -7.98422 -84.8637 -28.3043 -100.209 -41.9009" stroke="#FFD3BD" stroke-miterlimit="10"/>
<path d="M535.164 367.46C507.965 380.06 478.097 388.861 447.421 390.627C429.249 391.726 410.709 390.184 393.31 385.589C381.969 382.585 371.19 378.312 361.366 372.679C330.805 355.281 309.71 326.86 286.172 305.469C276.011 296.269 267.067 287.625 254.664 281.34C243.925 275.883 231.293 272.579 217.967 270.644C199.594 267.974 179.391 267.562 161.14 267.112C151.072 266.882 141.402 266.407 132.265 265.538C113.344 263.726 97.6356 261.093 81.8755 256.088C58.911 248.783 33.993 235.694 13.3123 216.355C11.1677 214.378 9.15461 212.353 7.13984 210.38C-14.3783 188.849 -25.6352 171.524 -28.7105 154.469C-32.0661 136.065 -28.3152 115.063 -31.4596 88.3186C-32.429 80.2996 -33.9709 71.9009 -36.2203 63.2727C-40.3088 47.3696 -46.6563 30.9794 -54.9261 15.7107C-67.6153 -7.43366 -84.952 -27.6402 -102.003 -40.778" stroke="#FDCFA5" stroke-miterlimit="10"/>
<path d="M531.581 371.722C504.455 384.066 474.667 392.406 444.13 393.919C426.093 394.868 407.686 393.227 390.482 388.638C379.27 385.639 368.554 381.419 358.725 375.941C328.219 358.854 306.646 331.138 283.833 309.462C273.875 300.012 265.206 290.913 252.947 284.221C242.284 278.405 229.596 274.842 216.21 272.75C197.714 269.87 177.317 269.452 158.862 269.253C148.659 269.172 138.916 268.953 129.574 268.386C110.241 267.23 93.8558 265.399 77.3558 261.142C53.2517 254.882 26.9412 242.623 5.94263 223.068C3.798 221.09 1.71998 219.063 -0.228148 217.041C-21.6062 195.206 -31.1852 176.287 -32.6048 158.308C-34.1048 138.832 -28.2573 117.332 -30.279 90.0582C-30.9187 81.8956 -32.1941 73.2996 -34.3101 64.5727C-38.1304 48.4209 -44.4694 31.7733 -53.127 16.4403C-66.3306 -6.87569 -84.9711 -26.9709 -103.662 -39.6476" stroke="#FDCFA5" stroke-miterlimit="10"/>
<path d="M527.99 375.984C500.939 388.021 471.228 396.003 440.896 397.214C422.996 397.961 404.785 396.275 387.646 391.689C376.498 388.743 365.845 384.577 356.079 379.152C325.562 362.425 303.577 335.366 281.489 313.353C271.672 303.598 263.341 294.099 251.159 287.048C240.573 280.874 227.827 277.103 214.317 274.8C195.763 271.712 175.171 271.288 156.512 271.391C146.239 271.463 136.299 271.289 126.875 271.234C107.12 271.044 90.0685 269.706 72.8287 266.198C47.6482 261.035 19.8169 249.55 -1.36964 229.783C-3.51257 227.754 -5.59055 225.727 -7.53697 223.653C-28.7732 201.462 -36.7392 180.947 -36.375 162.1C-36.0194 141.552 -28.1385 119.501 -29.0411 91.8005C-29.286 83.4963 -30.3615 74.7524 -32.3426 65.8754C-35.8946 49.4748 -42.2916 32.6192 -51.3355 17.1703C-65.1183 -6.31944 -84.9977 -26.3011 -105.329 -38.5169" stroke="#FDCFA5" stroke-miterlimit="10"/>
<path d="M524.404 380.295C497.492 392.08 467.797 399.598 437.603 400.556C419.837 401.153 401.762 399.317 384.816 394.788C373.733 391.845 363.143 387.732 353.437 382.464C322.909 366.046 300.575 339.697 279.148 317.396C269.534 307.391 261.478 297.436 249.374 289.976C238.863 283.496 226.128 279.416 212.492 277.006C193.815 273.708 173.026 273.328 154.228 273.685C143.82 273.907 133.802 274.142 124.18 274.184C104.025 274.289 86.2831 274.165 68.3051 271.354C41.9832 267.287 12.7611 256.58 -8.67836 236.599C-10.8862 234.567 -12.8976 232.491 -14.844 230.417C-35.9402 207.922 -42.2283 185.814 -40.1417 165.993C-37.9304 144.373 -28.0179 121.823 -27.7978 93.5924C-27.7113 85.0931 -28.5869 76.2012 -30.3698 67.2277C-33.6518 50.5269 -40.1087 33.5147 -49.4738 17.9521C-63.8376 -5.65993 -84.8892 -25.5773 -106.926 -37.3344" stroke="#FDCFA5" stroke-miterlimit="10"/>
<path d="M520.753 384.557C493.916 396.035 464.297 403.196 434.244 403.849C416.613 404.296 398.671 402.362 381.855 397.837C370.901 394.898 360.375 390.839 350.666 385.674C320.192 369.566 297.38 343.923 276.677 321.337C267.268 311.029 259.486 300.672 247.524 292.855C237.09 286.017 224.298 281.677 210.602 279.111C191.802 275.603 170.883 275.219 151.88 275.878C141.402 276.252 131.181 276.738 121.419 277.084C100.852 277.846 82.4336 278.524 63.7158 276.461C36.2542 273.439 5.63782 263.614 -16.1178 243.364C-18.3256 241.332 -20.4002 239.203 -22.3449 237.077C-43.2361 214.279 -47.9113 190.576 -44.1689 169.831C-40.0371 147.141 -28.0913 124.039 -26.7503 95.3311C-26.334 86.6881 -26.9447 77.6504 -28.5926 68.5268C-31.6064 51.5772 -38.1197 34.3055 -47.8727 18.6785C-62.7508 -5.10512 -85.1062 -24.9111 -108.783 -36.2072" stroke="#FDCFA5" stroke-miterlimit="10"/>
<path d="M517.165 388.866C490.401 400.088 460.863 406.787 431.013 407.19C413.454 407.433 395.773 405.456 379.022 400.933C368.133 397.996 357.67 393.991 347.958 388.929C317.474 373.13 294.313 348.196 274.272 325.272C265.066 314.713 257.558 303.901 245.675 295.675C235.318 288.479 222.469 283.88 208.712 281.208C189.787 277.541 168.676 277.099 149.533 278.063C138.92 278.587 128.625 279.328 118.657 279.977C97.6809 281.343 78.649 282.877 59.1264 281.561C30.5884 279.636 -1.54871 270.585 -23.4923 250.123C-25.6984 248.04 -27.773 245.91 -29.7177 243.785C-50.4671 220.631 -53.4661 195.386 -48.0031 173.719C-42.0174 150.008 -28.0381 126.356 -25.5763 97.1689C-24.8285 88.3308 -25.176 79.1988 -26.689 69.9251C-29.4345 52.7267 -36.0059 35.247 -46.0802 19.5063C-61.5376 -4.45113 -85.1318 -24.1436 -110.449 -34.9787" stroke="#FDCFA5" stroke-miterlimit="10"/>
<path d="M513.58 393.134C486.955 404.103 457.432 410.339 427.72 410.489C410.296 410.581 392.749 408.506 376.192 403.99C365.369 401.055 355.034 397.106 345.316 392.198C314.886 376.762 291.248 352.482 271.931 329.272C262.93 318.411 255.696 307.196 243.89 298.612C233.609 291.057 220.768 286.252 206.822 283.368C187.775 279.491 166.531 279.096 147.12 280.309C136.372 280.983 126.003 281.979 115.896 282.933C94.508 284.955 74.7978 287.343 54.5371 286.723C24.8561 285.946 -8.67025 277.622 -30.8667 256.945C-33.1378 254.86 -35.1475 252.732 -37.0888 250.504C-57.698 227.046 -59.0192 200.207 -51.9005 177.616C-44.0591 152.833 -28.0465 128.629 -24.3988 98.9669C-23.3212 89.9851 -23.4022 80.6557 -24.7819 71.2834C-27.2574 53.7848 -33.8887 36.1485 -44.3492 20.292C-60.3859 -3.8392 -85.2189 -23.4181 -112.177 -33.7923" stroke="#FDCFA5" stroke-miterlimit="10"/>
<path d="M509.996 397.393C483.447 408.056 454 413.934 424.429 413.779C407.139 413.721 389.792 411.498 373.299 407.035C362.605 404.105 352.269 400.207 342.612 395.404C312.171 380.277 288.186 356.707 269.528 333.21C260.665 322.096 253.771 310.428 242.109 301.436C231.905 293.524 219.007 288.459 205.002 285.419C185.831 281.331 164.393 280.93 144.842 282.447C134.024 283.274 123.452 284.521 113.204 285.779C91.4043 288.458 71.0175 291.647 50.017 291.776C19.1946 292.094 -15.7875 284.546 -38.2369 263.655C-40.508 261.57 -42.5809 259.389 -44.4573 257.162C-64.9247 233.348 -64.6346 204.966 -55.7286 181.403C-45.9684 155.602 -27.9225 130.847 -23.2171 100.653C-21.8098 91.5275 -21.6908 82.0502 -22.8706 72.5299C-25.0779 54.7825 -31.7655 36.8868 -42.5506 21.0195C-59.1017 -3.28336 -85.2385 -22.7509 -113.837 -32.6641" stroke="#FDCFA5" stroke-miterlimit="10"/>
<path d="M506.404 401.705C479.993 412.115 450.561 417.53 421.193 417.124C404.039 416.917 386.825 414.594 370.526 410.138C359.898 407.21 349.624 403.366 340.029 398.668C309.643 383.852 285.244 360.989 267.248 337.154C258.655 325.739 251.97 313.666 240.384 304.317C230.255 296.097 217.367 290.724 203.236 287.576C184.007 283.281 162.374 282.873 142.618 284.692C131.665 285.669 121.019 287.171 110.569 288.68C88.3569 292.015 67.3583 296.009 45.553 296.884C13.6559 298.249 -22.7837 291.529 -45.486 270.423C-47.7554 268.287 -49.8283 266.105 -51.7679 263.825C-72.0304 239.709 -70.1272 209.731 -59.5006 185.246C-47.8848 158.372 -27.7422 133.121 -21.9809 102.446C-20.1771 93.1276 -19.8583 83.5024 -20.9031 73.832C-22.8421 55.8359 -29.5879 37.732 -40.7592 21.7489C-57.8895 -2.7277 -85.2651 -22.0817 -115.506 -31.4825" stroke="#FDCFA5" stroke-miterlimit="10"/>
<path d="M502.818 405.965C476.481 416.068 447.127 421.124 417.899 420.414C400.881 420.005 383.799 417.635 367.63 413.184C357.067 410.257 346.92 406.52 337.321 401.925C306.925 387.418 282.179 365.214 264.84 341.143C256.451 329.477 250.041 316.95 238.596 307.244C228.545 298.666 215.599 293.085 201.409 289.729C182.057 285.224 160.228 284.861 140.333 286.933C129.31 288.062 118.528 289.766 107.871 291.629C85.2489 295.569 63.5721 300.416 41.0253 302.091C7.98675 304.552 -29.8437 298.61 -52.7989 277.29C-55.0683 275.153 -57.2044 272.918 -59.0791 270.641C-79.1997 246.168 -75.6222 214.699 -63.3382 189.239C-49.8685 161.345 -27.6908 135.491 -20.7436 104.34C-18.6101 94.8779 -18.0264 85.1068 -18.9362 75.2863C-20.6053 56.9899 -27.4109 38.7296 -38.9034 22.6327C-56.613 -2.01764 -85.2275 -21.258 -117.108 -30.1979" stroke="#FDCFA5" stroke-miterlimit="10"/>
<path d="M499.165 410.276C472.902 420.124 443.629 424.719 414.539 423.756C397.656 423.196 380.772 420.731 364.668 416.281C354.168 413.408 344.086 409.674 334.549 405.184C304.207 390.988 279.113 369.493 262.37 345.081C254.186 333.113 248.047 320.234 236.684 310.067C226.709 301.131 213.707 295.29 199.392 291.776C179.917 287.06 157.958 286.693 137.795 289.014C126.637 290.293 115.781 292.253 104.984 294.42C82.0135 299.069 59.5969 304.665 36.3102 307.088C2.13204 310.594 -37.1559 305.479 -60.3641 283.945C-62.6984 281.806 -64.7678 279.522 -66.6425 277.244C-86.623 252.467 -81.3677 219.405 -67.363 193.023C-51.9761 164.161 -27.7633 137.705 -19.7585 106.022C-17.2952 96.4166 -16.5099 86.4461 -17.2215 76.5291C-18.6223 57.984 -25.486 39.5156 -37.3647 23.3029C-55.5887 -1.51913 -85.5068 -20.6481 -119.028 -29.1271" stroke="#FDCFA5" stroke-miterlimit="10"/>
<path d="M495.577 414.538C454.255 429.607 405.248 431.384 361.835 419.331C318.422 407.278 281.184 381.466 260.092 349.026C252.113 336.755 246.248 323.473 234.961 312.948C211.633 291.1 170.891 286.71 135.573 291.26C100.32 295.812 67.1664 307.647 31.8468 312.249C-3.40777 316.852 -44.1516 312.514 -67.6126 290.765C-94.9186 265.384 -88.3103 226.802 -71.1344 196.918C-53.8919 166.984 -27.6475 140.028 -18.4568 107.87C-10.4414 79.7946 -16.6413 49.136 -35.4446 24.1402C-54.2478 -0.85559 -85.4048 -19.871 -120.566 -27.889" stroke="#FF7E07" stroke-miterlimit="10"/>
<path d="M484.669 416.133C443.623 430.747 395.214 432.132 352.457 419.895C309.7 407.657 272.91 382.066 252.462 349.802C244.494 337.222 239.102 323.389 228.216 312.516C206.13 290.452 166.771 285.541 132.591 289.098C98.4759 292.657 66.0122 303.279 31.1061 307.173C-4.2579 311.154 -45.2152 307.375 -69.3443 286.171C-97.2586 261.492 -92.2821 223.113 -75.6821 192.952C-59.0821 162.791 -32.1833 135.702 -22.1108 104.397C-13.4136 77.324 -19.0034 47.8707 -36.4037 23.6943C-53.8039 -0.482066 -83.1497 -19.2314 -117.004 -27.4637" stroke="#FF7E07" stroke-miterlimit="10"/>
<path d="M473.699 417.676C432.994 431.786 385.117 432.828 342.949 420.456C300.781 408.084 264.508 382.612 244.769 350.526C236.812 337.587 231.955 323.307 221.471 312.087C200.691 289.86 162.65 284.375 129.673 286.941C96.6332 289.453 64.858 298.913 30.3637 302.15C-5.10802 305.458 -46.3472 302.34 -71.1427 281.629C-99.7318 257.7 -96.254 219.427 -80.3631 189.087C-64.4723 158.748 -36.9172 131.475 -25.8997 101.077C-16.4574 75.0591 -21.4986 46.7061 -37.496 23.3491C-53.5582 -0.00997949 -81.0277 -18.4911 -113.575 -26.9377" stroke="#FF7E07" stroke-miterlimit="10"/>
<path d="M462.793 419.271C422.365 432.875 375.086 433.525 333.506 421.069C291.926 408.613 256.235 383.212 237.141 351.302C229.196 338.002 224.874 323.277 214.728 311.656C195.188 289.264 158.595 283.259 126.693 284.779C94.7906 286.299 63.7039 294.596 29.5581 297.123C-5.95634 299.76 -47.5423 297.3 -72.9393 277.084C-102.202 253.855 -100.224 215.738 -85.0423 185.221C-69.8606 154.703 -41.5863 127.299 -29.6204 97.7061C-19.5645 72.7902 -23.8623 45.5439 -38.5199 22.9527C-53.1792 0.413002 -78.8392 -17.7505 -110.078 -26.463" stroke="#FF7E07" stroke-miterlimit="10"/>
<path d="M451.817 420.868C411.729 434.02 364.917 434.273 323.994 421.632C283.07 408.992 247.895 383.712 229.443 352.029C221.51 338.369 217.721 323.248 207.915 311.175C189.615 288.669 154.407 282.041 123.644 282.517C92.8818 282.992 62.4836 290.126 28.6847 291.996C-7.00413 294.008 -48.7388 292.11 -74.8688 272.437C-104.804 249.907 -104.329 211.997 -89.8544 181.251C-75.3152 150.506 -46.4547 123.07 -33.5404 94.2811C-22.8044 70.4184 -26.4886 44.2745 -39.7433 22.5027C-52.998 0.730878 -76.8483 -17.115 -106.778 -26.0933" stroke="#FFA14A" stroke-miterlimit="10"/>
<path d="M440.912 422.414C401.101 435.06 354.886 434.972 314.616 422.198C274.347 409.425 239.688 384.265 221.879 352.81C213.958 338.789 210.638 323.221 201.234 310.8C184.172 288.181 150.351 280.928 120.726 280.411C91.1013 279.893 61.3302 285.761 27.9413 287.025C-7.85521 288.364 -49.8051 287.078 -76.6032 267.949C-107.147 246.12 -108.301 208.363 -94.4065 177.442C-80.5764 146.519 -51.0615 118.95 -37.1338 90.9679C-25.7826 68.1561 -28.7901 43.1683 -40.6418 22.2159C-52.4936 1.26346 -74.5326 -16.3163 -103.09 -25.5068" stroke="#FFA14A" stroke-miterlimit="10"/>
<path d="M429.934 424.006C390.464 436.148 344.781 435.717 305.103 422.757C265.425 409.797 231.412 384.761 214.18 353.531C206.271 339.15 203.484 323.187 194.485 310.316C178.596 287.633 146.289 279.761 117.739 278.197C89.2545 276.635 60.1719 281.34 27.1298 281.946C-8.77268 282.56 -50.9413 281.988 -78.4706 263.35C-109.688 242.22 -112.342 204.619 -99.1549 173.469C-85.9673 142.319 -55.9312 114.716 -40.9901 87.54C-29.0903 65.8285 -31.2879 41.8981 -41.8016 21.7629C-52.3153 1.62777 -72.4798 -15.6323 -99.7283 -25.0886" stroke="#FFA14A" stroke-miterlimit="10"/>
<path d="M419.03 425.606C379.838 437.241 334.75 436.469 295.662 423.374C256.573 410.279 223.208 385.317 206.554 354.312C198.657 339.571 196.338 323.211 187.742 309.941C173.023 287.245 142.171 278.648 114.824 276.093C87.4122 273.536 59.0215 276.976 26.3912 276.926C-9.61898 276.866 -52.0678 276.903 -80.2003 258.812C-112.026 238.384 -116.247 200.989 -103.767 169.609C-91.2869 138.229 -60.6665 110.645 -44.7087 84.1731C-32.2602 63.5619 -33.7144 40.7381 -42.8235 21.3709C-51.9342 2.05514 -70.2225 -14.9367 -96.2287 -24.6094" stroke="#FFA14A" stroke-miterlimit="10"/>
<path d="M408.056 427.145C369.203 438.328 324.649 437.161 286.215 423.934C247.78 410.706 214.998 385.814 198.921 355.034C191.036 339.933 189.249 323.23 180.995 309.456C167.381 286.745 138.048 277.426 111.839 273.878C85.567 270.277 57.7539 273.942 25.5814 271.845C-10.4837 269.517 -53.2006 271.761 -82.0661 254.212C-114.5 234.485 -120.286 197.244 -108.451 165.689C-96.6147 134.133 -65.5363 106.461 -48.4353 80.7998C-35.4365 61.2373 -36.1473 39.5203 -43.8551 21.024C-51.5612 2.47615 -68.0416 -14.1466 -92.7389 -24.0852" stroke="#FFA14A" stroke-miterlimit="10"/>
<path d="M397.147 428.743C358.571 439.42 314.548 437.91 276.77 424.498C238.925 411.136 206.79 386.317 191.29 355.814C183.416 340.352 182.098 323.252 174.247 309.08C161.739 286.354 133.988 276.365 108.855 271.72C83.7208 267.126 56.4664 269.624 24.7723 266.822C-11.3954 263.666 -54.3326 266.675 -83.8662 249.671C-116.973 230.643 -124.26 193.559 -113.133 161.825C-102.007 130.092 -70.407 102.385 -52.226 77.4811C-38.7436 59.0167 -38.5811 38.4108 -44.9492 20.6802C-51.3173 2.94958 -65.9215 -13.4049 -89.3116 -23.5579" stroke="#FFA14A" stroke-miterlimit="10"/>
<path d="M386.179 430.335C347.879 440.506 304.453 438.655 267.265 425.108C230.076 411.561 198.587 386.867 183.599 356.587C175.803 340.767 174.885 323.32 167.506 308.647C156.102 285.958 129.872 275.196 105.877 269.557C81.8823 263.919 55.3693 263.659 23.9691 261.794C-12.4906 259.608 -55.4604 261.637 -85.7253 245.124C-119.44 226.797 -128.358 189.865 -117.875 157.955C-107.393 126.046 -75.4016 98.3009 -56.0091 74.1066C-42.108 56.7382 -41.0705 37.1918 -46.0357 20.2806C-51.0008 3.36936 -63.7937 -12.719 -85.8767 -23.0863" stroke="#FFA14A" stroke-miterlimit="10"/>
<path d="M375.267 431.883C337.309 441.549 294.416 439.304 257.815 425.673C221.215 412.043 190.375 387.37 175.965 357.315C168.18 341.135 167.664 323.34 160.756 308.168C150.393 285.462 125.812 273.981 102.89 267.348C80.0333 260.716 54.2123 259.191 23.2222 256.722C-13.3436 253.81 -56.5304 256.502 -87.465 240.586C-121.787 222.908 -132.272 186.233 -122.497 154.094C-112.722 121.955 -80.2769 94.2254 -59.7394 70.7904C-45.4179 54.4665 -43.5088 36.0826 -47.0711 19.9908C-50.6333 3.89897 -61.6166 -11.8718 -82.3907 -22.5049" stroke="#FFA14A" stroke-miterlimit="10"/>
<path d="M364.291 433.48C326.608 442.692 284.313 440.054 248.369 426.239C212.424 412.424 182.232 387.824 168.332 358.044C160.625 341.506 160.511 323.364 154.008 307.741C144.616 285.118 121.686 272.868 99.9688 265.192C78.2517 257.517 53.0577 254.724 22.4776 251.65C-14.2573 247.96 -57.5979 251.368 -89.2007 235.996C-124.13 219.02 -136.182 182.499 -127.049 150.133C-117.916 117.766 -85.2112 90.0454 -63.3323 67.3247C-48.7219 52.0925 -45.7432 34.7746 -47.9674 19.5C-50.1916 4.22545 -59.2987 -11.2771 -78.7656 -22.1245" stroke="#FFA14A" stroke-miterlimit="10"/>
<path d="M353.388 435.022C316.048 443.73 274.284 440.749 238.929 426.799C203.574 412.849 174.094 388.324 160.772 358.769C153.078 341.819 153.364 323.382 147.333 307.26C138.915 284.669 117.635 271.649 97.0563 262.98C76.4122 254.31 51.9119 250.2 21.7402 246.573C-15.1008 242.158 -58.5933 246.231 -90.994 231.399C-126.532 215.124 -140.148 178.758 -131.725 146.213C-123.302 113.669 -90.27 85.9071 -67.1163 63.9501C-52.1504 49.7602 -48.2351 33.6069 -49.0547 19.1003C-49.8743 4.59365 -57.1717 -10.5913 -75.3315 -21.6531" stroke="#FFA14A" stroke-miterlimit="10"/>
<path d="M342.415 436.617C305.352 444.819 264.119 441.495 229.419 427.412C194.718 413.329 165.888 388.825 153.075 359.597C145.458 342.288 146.015 323.499 140.584 306.933C133.14 284.375 113.576 270.587 94.0715 260.872C74.5671 251.157 50.6938 245.78 20.9305 241.599C-16.0798 236.406 -59.7261 241.195 -92.7949 226.908C-128.94 211.283 -144.189 175.172 -136.408 142.4C-128.627 109.628 -95.3994 81.821 -70.906 60.6297C-55.7145 47.4779 -50.7312 32.4421 -50.1496 18.8063C-49.5662 5.11907 -55.0541 -9.74829 -71.9032 -21.1274" stroke="#FFA14A" stroke-miterlimit="10"/>
<path d="M331.504 438.214C294.78 445.964 254.081 442.245 219.971 427.976C185.862 413.706 157.807 389.332 145.442 360.324C137.902 342.657 138.794 323.57 133.836 306.453C127.3 283.976 109.451 269.421 91.0865 258.661C72.7217 247.902 49.4754 241.258 20.1204 236.524C-17.059 230.552 -60.8573 236.006 -94.6608 222.313C-131.414 207.389 -148.229 171.432 -141.092 138.484C-134.02 105.534 -100.594 77.6308 -74.6328 57.261C-59.149 45.0979 -53.166 31.2803 -51.1796 18.4125C-49.1933 5.54468 -52.8699 -9.05659 -68.4118 -20.65" stroke="#FFA14A" stroke-miterlimit="10"/>
<path d="M320.531 439.756C284.084 446.999 243.981 442.94 210.526 428.537C177.071 414.135 149.666 389.781 137.812 361.048C130.35 342.972 131.513 323.584 127.091 305.97C121.464 283.523 105.33 268.2 88.1037 256.448C70.8769 244.696 48.261 236.681 19.3127 231.445C-17.9693 224.645 -61.988 230.865 -96.4596 217.717C-133.819 203.443 -152.201 167.692 -145.773 134.566C-139.344 101.388 -105.785 73.3862 -78.4205 53.8358C-62.7743 42.6571 -55.5967 30.0643 -52.2707 17.9623C-48.9463 5.91168 -50.7484 -8.36984 -64.9165 -20.2269" stroke="#FFA14A" stroke-miterlimit="10"/>
<path d="M309.622 441.352C273.517 448.092 233.945 443.689 201.08 429.152C168.214 414.614 141.587 390.338 130.18 361.826C122.796 343.392 124.23 323.652 120.342 305.592C115.625 283.175 101.272 267.087 85.1829 254.341C69.0958 241.545 47.1718 232.265 18.5669 226.474C-18.8194 218.897 -63.0568 225.831 -98.2614 213.226C-136.229 199.653 -156.178 164.107 -150.456 130.7C-144.734 97.2933 -111.04 69.1413 -82.1462 50.5176C-66.2726 40.3255 -58.0287 28.9016 -53.3014 17.6704C-48.5741 6.43922 -48.5649 -7.57621 -61.4259 -19.6476" stroke="#FFA14A" stroke-miterlimit="10"/>
<path d="M298.716 442.953C262.888 449.186 223.913 444.443 191.638 429.718C159.364 414.994 133.449 390.794 122.552 362.607C115.246 343.764 116.883 323.773 113.664 305.168C109.789 282.831 97.216 265.977 82.2669 252.187C67.3177 238.398 46.0242 227.747 17.8276 221.403C-19.7262 212.997 -64.119 220.698 -99.9917 208.637C-138.566 195.714 -160.147 160.372 -155.069 126.789C-149.991 93.2066 -116.288 64.7972 -85.8671 47.1516C-69.8944 37.8902 -60.4577 27.7425 -54.3258 17.2793C-48.2588 6.81387 -46.375 -6.88182 -57.9287 -19.1676" stroke="#FFA14A" stroke-miterlimit="10"/>
<path d="M287.742 444.494C252.189 450.273 213.813 445.086 182.127 430.278C150.505 415.473 125.306 391.244 114.855 363.33C107.626 344.128 109.47 323.784 106.851 304.735C103.819 282.426 93.0923 264.808 79.2179 249.972C65.3434 235.136 44.7436 223.169 16.9537 216.323C-20.7028 207.089 -65.2492 215.507 -101.922 204.038C-141.102 191.764 -164.25 156.628 -159.817 122.869C-155.448 89.1084 -121.735 60.3902 -89.721 43.7248C-73.5825 35.345 -62.9529 26.4735 -55.483 16.8275C-48.0131 7.18145 -44.3197 -6.19664 -54.5646 -18.7482" stroke="#FFA14A" stroke-miterlimit="10"/>
<path d="M276.836 446.092C241.559 451.364 203.715 445.834 172.683 430.893C141.653 415.901 117.231 391.75 107.226 364.108C100.14 344.499 102.059 323.848 100.106 304.306C97.8543 282.022 88.9726 263.642 76.2361 247.813C63.4996 231.984 43.5951 218.649 16.2118 211.3C-21.5455 201.187 -66.314 210.422 -103.654 199.498C-143.442 187.874 -168.156 152.944 -164.432 119.007C-160.708 85.0699 -127.046 55.9377 -93.3795 40.4092C-77.0751 32.9108 -65.3195 25.3648 -56.4466 16.5382C-47.5737 7.7116 -42.0691 -5.4004 -51.0068 -18.1663" stroke="#FFA14A" stroke-miterlimit="10"/>
<path d="M265.862 447.686C230.927 452.455 193.614 446.581 163.238 431.456C132.862 416.332 109.153 392.255 99.5958 364.835C92.5867 344.867 94.7126 323.863 93.3595 303.876C91.8866 281.619 84.8485 262.526 73.2517 245.653C61.6549 228.78 42.4458 214.076 15.4025 206.276C-22.4574 195.334 -67.4446 205.283 -105.52 194.953C-145.914 183.979 -172.197 149.306 -169.18 115.14C-166.163 80.9733 -132.551 51.3758 -97.2338 37.0355C-80.7619 30.3672 -67.8801 24.1467 -57.6042 16.1395C-47.3933 8.1301 -40.0125 -4.71363 -47.643 -17.6939" stroke="#FFA14A" stroke-miterlimit="10"/>
<path d="M254.952 449.23C220.359 453.495 183.578 447.278 153.791 432.018C124.005 416.758 101.14 392.71 91.9621 365.611C85.0965 345.236 87.2326 323.923 86.6758 303.447C85.9821 281.216 80.7894 261.36 70.3306 243.494C59.8717 225.628 41.293 209.554 14.6564 201.251C-23.2395 189.433 -68.5137 200.197 -107.257 190.411C-148.257 180.087 -176.107 145.62 -173.735 111.277C-171.361 76.8835 -137.796 46.7691 -100.832 33.7202C-84.1906 27.8303 -70.1211 23.0405 -58.5055 15.799C-46.89 8.55756 -37.6363 -3.91498 -44.0228 -17.1632" stroke="#FFA14A" stroke-miterlimit="10"/>
<path d="M243.983 450.825C209.664 454.635 173.481 448.026 144.349 432.633C115.217 417.24 93.0666 393.215 84.3346 366.389C77.6109 345.658 79.8238 323.986 79.9333 303.018C80.0206 280.76 76.7365 260.195 67.4156 241.336C58.0964 222.425 40.213 204.983 13.9181 196.177C-24.0786 183.479 -69.5083 195.011 -108.986 185.819C-150.593 176.145 -180.075 141.881 -178.345 107.311C-176.615 72.7416 -143.093 41.9558 -104.548 30.2475C-87.7378 25.1362 -72.5438 21.7233 -59.5271 15.3527C-46.5086 8.93065 -35.4436 -3.27577 -40.523 -16.7383" stroke="#FFA14A" stroke-miterlimit="10"/>
<path d="M233.074 452.423C199.097 455.729 163.445 448.777 134.904 433.197C106.362 417.669 84.989 393.722 76.7047 367.117C70.1244 345.978 72.3476 323.998 73.1868 302.59C74.0532 280.358 72.6128 259.081 64.4333 239.126C56.252 219.223 39.064 200.412 13.1108 191.102C-24.9201 177.475 -70.6369 189.822 -110.85 181.225C-153.063 172.2 -184.114 138.193 -183.091 103.394C-182.068 68.5948 -148.591 37.1893 -108.404 26.9266C-91.4242 22.5938 -75.1074 20.6093 -60.686 15.0067C-46.2646 9.40403 -33.39 -2.48481 -37.1588 -16.2647" stroke="#FFA14A" stroke-miterlimit="10"/>
<path d="M222.1 453.969C188.4 456.769 153.28 449.474 125.394 433.761C97.5075 418.049 76.9119 394.179 69.0087 367.844C62.5702 346.349 64.807 323.957 66.3758 302.11C67.9581 279.85 68.4914 257.865 61.3848 236.915C54.2783 215.966 37.8506 195.789 12.2374 186.026C-25.8295 171.523 -71.8315 184.633 -112.714 176.631C-155.532 168.205 -188.152 134.456 -187.838 99.4785C-187.524 64.5011 -153.953 32.2226 -112.19 23.4549C-94.975 19.8513 -77.5356 19.2954 -61.7761 14.51C-46.0167 9.72458 -31.2658 -1.89601 -33.7275 -15.8902" stroke="#FFA14A" stroke-miterlimit="10"/>
<path d="M211.194 455.559C177.835 457.907 143.249 450.165 115.95 434.369C88.6537 418.522 68.9021 394.68 61.3783 368.667C55.0833 346.765 57.3304 324.064 59.6936 301.778C62.0569 279.493 64.4338 256.797 58.4652 234.854C52.4967 212.911 36.831 191.317 11.4929 181.1C-26.6083 165.667 -72.899 179.644 -114.514 172.185C-157.941 164.46 -192.126 130.865 -192.456 95.7118C-192.787 60.5585 -159.187 27.4051 -115.917 20.2331C-98.3987 17.3095 -79.9698 18.2806 -62.8074 14.3146C-45.645 10.3486 -29.0829 -1.00588 -30.2374 -15.2144" stroke="#FFA14A" stroke-miterlimit="10"/>
<path d="M977.162 151.24C948.46 168.015 917.866 183.027 884.712 188.988C851.624 194.9 815.49 190.714 789.649 172.132C758.793 149.932 745.294 110.014 709.869 94.2583C686.935 84.069 659.691 86.2583 633.86 87C607.964 87.7396 579.81 85.9826 561.223 70.166C527.905 41.8039 542.066 -16.7785 505.784 -41.9926C481.828 -58.6053 447.565 -52.5263 417.238 -55.3859C378.876 -59.0269 343.399 -79.1129 323.251 -108.636C303.102 -138.16 298.718 -176.539 311.538 -210.329" stroke="#FDCFA5" stroke-miterlimit="10"/>
<path d="M973.516 155.5C944.952 172.022 914.371 186.622 881.424 192.229C861.549 195.641 840.561 195.41 821.412 190.653C808.904 187.56 797.176 182.482 787.014 175.292C756.212 153.403 742.1 114.341 707.536 98.098C695.246 92.3319 681.868 89.9822 667.92 89.1595C656.112 88.4592 643.944 88.8291 631.978 88.9995C615.198 89.2682 597.34 88.7282 581.756 84.2958C573.126 81.8458 565.185 78.2334 558.47 72.9612C545.226 62.629 538.754 48.0382 533.678 32.5146C526.293 10.1643 521.64 -14.2082 504.368 -30.4964C502.541 -32.2574 500.515 -33.8703 498.356 -35.4362C474.607 -52.4027 441.823 -47.8205 413.283 -51.6515C385.328 -55.4631 359.378 -68.7925 340.015 -88.654C334.42 -94.4044 329.428 -100.702 325.036 -107.443C317.183 -119.606 311.586 -133.137 308.344 -147.106C303.441 -167.879 303.705 -189.564 309.754 -209.305" stroke="#FDCFA5" stroke-miterlimit="10"/>
<path d="M969.928 159.812C941.439 176.028 910.937 190.218 878.128 195.572C858.324 198.833 837.533 198.505 818.514 193.752C806.071 190.661 794.405 185.688 784.241 178.55C753.492 157.023 738.898 118.769 705.129 102.089C692.976 96.1216 679.939 93.2679 666.134 92.0377C654.404 90.9793 642.179 91.0896 630.151 91.155C613.248 91.2134 595.26 90.6691 579.471 86.5391C570.772 84.2414 562.757 80.8842 555.773 75.8607C542.185 66.1355 534.969 52.3961 529.153 37.6209C520.692 16.3685 514.583 -7.22772 497.059 -23.7305C495.167 -25.4936 493.207 -27.1559 491.049 -28.7217C467.439 -45.9928 436.265 -42.9032 409.516 -47.8084C383.348 -52.5914 359.433 -66.5232 341.32 -86.8586C336.055 -92.7526 331.263 -99.1978 327.071 -106.087C319.487 -118.499 313.832 -132.238 310.203 -146.323C304.786 -167.268 303.746 -188.841 308.155 -208.121" stroke="#FDCFA5" stroke-miterlimit="10"/>
<path d="M966.343 164.073C937.993 180.035 907.504 193.814 874.835 198.864C855.168 201.922 834.574 201.549 815.685 196.801C803.371 193.714 791.769 188.795 781.601 181.76C750.842 160.542 735.701 123.094 702.725 106.028C690.775 99.8097 678.014 96.5014 664.286 94.9131C652.632 93.4965 640.414 93.401 628.263 93.2561C611.237 93.1044 593.054 92.5536 577.125 88.7281C568.291 86.5805 560.14 83.4249 553.014 78.7574C539.015 69.637 531.185 56.8047 524.566 42.7243C514.964 22.5163 507.396 -0.200766 489.686 -16.9673C487.794 -18.7304 485.836 -20.4442 483.679 -22.0615C460.212 -39.6886 430.582 -38.0936 405.685 -43.9681C381.239 -49.7246 359.489 -64.2546 342.499 -85.1196C337.564 -91.1573 333.039 -97.7998 328.98 -104.787C321.665 -117.5 315.95 -131.396 312 -145.594C306.005 -166.713 303.725 -188.173 306.492 -206.94" stroke="#FFC087" stroke-miterlimit="10"/>
<path d="M962.756 168.335C934.481 183.991 904.071 197.36 871.605 202.159C852.073 205.067 831.612 204.596 812.853 199.852C800.605 196.767 789.065 191.902 778.957 185.023C748.188 164.114 732.566 127.475 700.383 109.971C688.57 103.551 676.149 99.7903 662.566 97.743C650.988 96.0197 638.715 95.6132 626.44 95.3097C609.291 94.9478 590.976 94.4442 574.779 90.8675C565.872 88.9236 557.587 85.9181 550.254 81.6045C535.845 73.0888 527.403 61.0606 519.976 47.8294C509.298 28.7194 500.274 6.77861 482.246 -10.2046C480.356 -12.0192 478.332 -13.7351 476.241 -15.3502C452.978 -33.2798 424.828 -33.1816 401.72 -40.0789C379.062 -46.8068 359.412 -61.9371 343.609 -83.3295C339.006 -89.5624 334.743 -96.2992 330.82 -103.437C323.774 -116.398 318.002 -130.553 313.664 -144.816C307.089 -166.109 303.636 -187.453 304.697 -205.762" stroke="#F29137" stroke-miterlimit="10"/>
<path d="M959.169 172.648C930.967 188.049 900.636 201.008 868.31 205.503C848.913 208.261 828.652 207.641 809.956 202.951C797.773 199.868 786.297 195.057 776.25 188.283C745.536 167.685 729.302 131.85 697.977 113.963C686.303 107.289 674.221 103.076 660.715 100.671C649.213 98.5892 636.885 97.9232 624.548 97.5146C607.34 96.9446 588.766 96.4324 572.429 93.1602C563.388 91.3664 555.028 88.6162 547.556 84.6071C532.737 76.6961 523.616 65.5215 515.449 53.0388C503.697 34.9752 493.151 13.86 474.934 -3.33559C472.979 -5.15231 471.022 -6.91755 468.932 -8.58416C445.81 -26.8182 419.206 -28.2662 397.951 -36.1328C377.016 -43.8856 359.529 -59.5626 344.848 -81.4332C340.574 -87.8097 336.578 -94.7438 332.788 -101.98C326.01 -115.19 320.18 -129.553 315.519 -143.878C308.428 -165.291 303.673 -186.575 303.094 -204.423" stroke="#F29137" stroke-miterlimit="10"/>
<path d="M955.578 176.907C927.514 192.055 897.198 204.551 865.011 208.792C845.749 211.401 825.621 210.682 807.12 205.999C795.066 202.92 783.653 198.162 773.604 191.491C742.879 171.202 726.163 136.176 695.631 117.902C684.095 110.976 672.354 106.31 658.925 103.547C647.498 101.159 635.18 100.184 622.718 99.6163C605.387 98.8362 586.683 98.3197 570.142 95.2984C561.031 93.6569 552.535 91.1082 544.856 87.4529C529.692 80.1489 519.828 69.8257 510.921 58.0913C498.027 41.1236 486.09 20.7868 467.621 3.37671C465.666 1.55999 463.644 -0.207419 461.556 -1.9255C438.575 -20.5155 413.516 -23.4583 394.05 -32.3476C374.902 -41.0718 359.452 -57.4028 346.022 -79.7472C342.077 -86.2674 338.282 -93.3495 334.691 -100.734C328.183 -114.244 322.294 -128.764 317.247 -143.204C309.576 -164.791 303.582 -185.962 301.363 -203.349" stroke="#F29137" stroke-miterlimit="10"/>
<path d="M951.925 181.219C923.937 196.059 893.7 208.146 861.716 212.136C842.59 214.543 822.659 213.78 804.223 209.098C792.234 206.022 780.884 201.318 770.895 194.803C740.223 174.876 722.964 140.554 693.29 121.896C681.892 114.717 670.489 109.65 657.205 106.428C645.855 103.681 633.479 102.499 620.957 101.775C603.504 100.784 584.603 100.313 567.924 97.5446C558.678 96.0532 550.043 93.7576 542.225 90.3554C526.651 83.6561 516.172 74.24 506.463 63.2005C492.494 47.2793 479.099 27.7701 460.312 10.1434C458.359 8.2752 456.337 6.5078 454.249 4.78972C431.409 -14.1048 407.896 -18.5937 390.281 -28.4523C372.858 -38.2015 359.571 -55.0792 347.263 -77.9532C343.65 -84.6685 340.118 -91.8449 336.664 -99.431C330.424 -113.19 324.543 -127.967 319.109 -142.472C310.924 -164.23 303.627 -185.341 299.766 -202.216" stroke="#F29137" stroke-miterlimit="10"/>
<path d="M948.34 185.477C920.426 200.062 890.267 211.739 858.423 215.425C839.367 217.679 819.635 216.819 801.393 212.144C789.468 209.121 778.248 204.421 768.19 198.008C737.507 178.39 719.768 144.824 690.885 125.832C679.624 118.452 668.498 112.879 655.356 109.3C644.081 106.247 631.65 104.753 619.004 103.871C601.427 102.67 582.397 102.194 565.448 99.7264C556.131 98.3872 547.36 96.2932 539.336 93.2448C523.352 87.1503 512.195 78.5877 501.745 68.2966C486.635 53.4712 471.784 34.7383 452.809 16.8992C450.856 15.0311 448.836 13.2122 446.75 11.4426C424.116 -7.8058 402.019 -13.8452 386.32 -24.6193C370.556 -35.3956 359.498 -52.8178 348.311 -76.1701C345.028 -83.029 341.762 -90.4027 338.441 -98.0874C332.469 -112.095 326.53 -127.08 320.709 -141.701C311.945 -163.633 303.41 -184.63 297.909 -201.044" stroke="#F29137" stroke-miterlimit="10"/>
<path d="M944.754 189.744C916.979 204.025 886.769 215.288 855.128 218.722C836.208 220.827 816.608 219.868 798.497 215.198C786.701 212.179 775.478 207.582 765.483 201.222C734.79 181.913 716.569 149.156 688.481 129.726C677.358 122.093 666.572 116.067 653.509 112.079C642.311 108.668 629.888 106.917 617.117 105.875C599.417 104.465 580.257 103.984 563.103 101.819C553.652 100.63 544.742 98.7889 536.643 96.0472C520.248 90.5574 508.413 82.8484 497.223 73.3057C481.039 59.5268 464.731 41.6215 445.503 23.568C443.484 21.6977 441.466 19.8273 439.445 18.0599C416.951 -1.49301 396.403 -9.12998 382.489 -20.824C368.451 -32.6768 359.556 -50.6457 349.554 -74.4739C346.601 -81.4766 343.535 -88.9982 340.414 -96.8308C334.711 -111.087 328.714 -126.28 322.572 -141.015C313.228 -163.121 303.454 -184.004 296.312 -199.957" stroke="#F29137" stroke-miterlimit="10"/>
<path d="M941.166 194.051C913.465 208.077 883.333 218.93 851.898 222.063C833.113 223.966 813.712 222.911 795.664 218.294C783.933 215.277 772.773 210.734 762.838 204.53C732.2 185.532 713.499 153.532 686.137 133.766C675.218 125.881 664.707 119.401 651.785 115.057C640.664 111.288 628.183 109.329 615.352 108.131C597.53 106.51 578.175 106.023 560.88 104.162C551.359 103.125 542.311 101.538 534.006 99.0982C517.202 94.2132 504.753 87.3598 492.759 78.5634C475.433 65.8803 457.669 48.7513 438.186 30.5348C436.17 28.6129 434.152 26.7426 432.067 24.9216C409.715 5.01263 390.648 -4.17264 378.652 -16.8338C366.338 -29.7115 359.605 -48.2271 350.727 -72.585C348.105 -79.7827 345.304 -87.4502 342.316 -95.3815C336.883 -109.938 330.828 -125.339 324.298 -140.138C314.44 -162.416 303.362 -183.188 294.58 -198.68" stroke="#FDCFA5" stroke-miterlimit="10"/>
<path d="M937.579 198.312C909.953 212.031 879.901 222.475 848.603 225.355C829.954 227.107 810.686 225.954 792.833 221.343C781.167 218.329 770.135 213.841 760.196 207.741C729.549 189.051 710.369 157.757 683.796 137.708C673.015 129.57 662.844 122.637 650.001 117.884C638.955 113.808 626.42 111.537 613.529 110.183C595.648 108.354 576.097 107.912 558.599 106.302C548.943 105.416 539.823 104.031 531.312 101.946C514.097 97.6657 500.97 91.6659 488.236 83.6178C469.771 71.9791 450.613 55.7314 430.879 37.2489C428.862 35.3271 426.779 33.4546 424.761 31.5843C402.549 11.3708 385.032 0.536425 374.819 -12.9931C364.297 -26.9967 359.662 -46.0096 351.967 -70.792C349.675 -78.1335 347.139 -85.9467 344.286 -94.0281C339.122 -108.833 333.008 -124.443 326.157 -139.355C315.72 -161.807 303.403 -182.465 292.98 -197.496" stroke="#FDCFA5" stroke-miterlimit="10"/>
<path d="M933.989 202.623C906.501 216.089 876.462 226.121 845.305 228.696C826.791 230.298 807.721 229.048 789.932 224.44C778.331 221.427 767.363 216.993 757.486 210.998C726.891 192.671 707.168 162.08 681.388 141.645C670.745 133.254 660.914 125.869 648.148 120.757C637.179 116.323 624.652 113.795 611.57 112.332C593.566 110.292 573.82 109.844 556.117 108.537C546.326 107.8 537.068 106.669 528.416 104.888C510.727 101.21 496.987 96.0662 483.513 88.7666C463.906 78.2237 443.292 62.7522 423.37 44.0574C421.288 42.1334 419.272 40.2116 417.255 38.2898C395.249 17.7739 379.281 5.29045 370.853 -9.10752C362.057 -24.1875 359.583 -43.6957 353.011 -69.0077C351.05 -76.5443 348.714 -84.5055 346.059 -92.6834C341.163 -107.737 334.991 -123.555 327.754 -138.583C316.737 -161.208 303.182 -181.753 291.119 -196.323" stroke="#FDCFA5" stroke-miterlimit="10"/>
<path d="M930.339 206.886C902.927 220.045 872.966 229.667 842.012 231.991C823.635 233.392 804.697 232.095 787.103 227.493C775.632 224.485 764.726 220.105 754.844 214.264C724.239 196.246 704.101 166.413 679.048 145.642C668.545 136.947 659.051 129.212 646.429 123.641C635.537 118.849 622.954 116.062 609.812 114.441C591.685 112.192 571.809 111.74 553.901 110.734C544.04 110.15 534.645 109.22 525.854 107.744C507.753 104.723 493.336 100.381 479.122 93.8294C458.44 84.3329 436.369 69.6892 416.129 50.7777C414.049 48.8023 412.033 46.8804 410.016 44.9586C388.151 24.0868 373.732 10.0057 367.152 -5.25858C360.148 -21.4644 359.771 -41.4699 354.32 -67.2601C352.689 -74.9403 350.618 -83.0474 348.098 -91.3754C343.472 -106.729 337.242 -122.755 329.68 -137.794C318.149 -160.591 303.29 -181.025 289.585 -195.082" stroke="#FFD3BD" stroke-miterlimit="10"/>
<path d="M926.753 211.151C899.414 224.055 869.534 233.216 838.718 235.287C820.411 236.536 801.673 235.091 784.207 230.544C772.801 227.539 761.959 223.212 752.073 217.474C721.523 199.767 700.906 170.64 676.577 149.584C666.278 140.637 657.059 132.448 644.514 126.519C633.697 121.42 621.058 118.373 607.857 116.545C589.608 114.085 569.535 113.678 551.489 112.926C541.493 112.491 531.959 111.815 523.028 110.643C504.517 108.227 489.421 104.738 474.466 98.9866C452.643 90.586 429.181 76.7206 408.688 57.5946C406.608 55.6192 404.529 53.6438 402.579 51.6726C380.854 30.4962 368.049 14.7681 363.19 -1.41815C357.977 -18.6983 359.696 -39.2011 355.431 -65.4673C354.13 -73.2912 352.325 -81.5955 349.939 -90.0222C345.58 -105.625 339.293 -121.859 331.344 -137.014C319.234 -159.984 303.136 -180.304 287.791 -193.901" stroke="#FFD3BD" stroke-miterlimit="10"/>
<path d="M923.164 215.46C895.965 228.06 866.097 236.861 835.421 238.627C817.249 239.726 798.709 238.184 781.31 233.589C769.969 230.585 759.19 226.312 749.366 220.679C718.805 203.281 697.71 174.86 674.172 153.469C664.011 144.269 655.067 135.625 642.664 129.34C631.925 123.883 619.293 120.579 605.967 118.644C587.594 115.974 567.391 115.562 549.14 115.112C539.072 114.882 529.402 114.407 520.265 113.538C501.344 111.726 485.636 109.093 469.875 104.088C446.911 96.7828 421.993 83.6937 401.312 64.3554C399.168 62.3778 397.155 60.353 395.14 58.3797C373.622 36.8495 362.365 19.5238 359.29 2.46907C355.934 -15.9347 359.685 -36.9371 356.54 -63.6814C355.571 -71.7004 354.029 -80.0991 351.78 -88.7273C347.691 -104.63 341.344 -121.021 333.074 -136.289C320.385 -159.434 303.048 -179.64 285.997 -192.778" stroke="#FDCFA5" stroke-miterlimit="10"/>
<path d="M919.581 219.722C892.455 232.066 862.667 240.406 832.13 241.919C814.093 242.868 795.686 241.227 778.482 236.638C767.27 233.639 756.554 229.419 746.725 223.941C716.219 206.854 694.646 179.138 671.833 157.462C661.875 148.012 653.206 138.913 640.947 132.221C630.284 126.405 617.596 122.842 604.21 120.75C585.714 117.87 565.317 117.452 546.862 117.253C536.659 117.172 526.916 116.953 517.574 116.386C498.241 115.23 481.856 113.399 465.356 109.142C441.252 102.882 414.941 90.6226 393.943 71.0677C391.798 69.0901 389.72 67.0632 387.772 65.0406C366.394 43.2058 356.815 24.2867 355.395 6.30784C353.895 -13.1681 359.743 -34.6678 357.721 -61.9418C357.081 -70.1044 355.806 -78.7004 353.69 -87.4273C349.87 -103.579 343.531 -120.227 334.873 -135.56C321.669 -158.876 303.029 -178.971 284.338 -191.648" stroke="#FDCFA5" stroke-miterlimit="10"/>
<path d="M915.99 223.984C888.939 236.021 859.228 244.003 828.896 245.214C810.996 245.961 792.785 244.275 775.646 239.689C764.498 236.743 753.845 232.577 744.079 227.152C713.562 210.425 691.577 183.366 669.489 161.353C659.672 151.598 651.341 142.099 639.159 135.048C628.573 128.874 615.827 125.103 602.317 122.8C583.763 119.712 563.171 119.288 544.512 119.391C534.239 119.463 524.299 119.289 514.875 119.234C495.12 119.044 478.069 117.706 460.829 114.198C435.648 109.035 407.817 97.5499 386.63 77.7826C384.487 75.7536 382.409 73.7267 380.463 71.6526C359.227 49.4618 351.261 28.9473 351.625 10.1C351.981 -10.4481 359.861 -32.4989 358.959 -60.1995C358.714 -68.5037 357.639 -77.2476 355.657 -86.1246C352.105 -102.525 345.708 -119.381 336.665 -134.83C322.882 -158.319 303.002 -178.301 282.671 -190.517" stroke="#FDCFA5" stroke-miterlimit="10"/>
<path d="M912.404 228.295C885.492 240.08 855.797 247.598 825.603 248.556C807.837 249.153 789.762 247.317 772.816 242.788C761.733 239.845 751.143 235.732 741.437 230.464C710.909 214.046 688.575 187.697 667.148 165.396C657.534 155.391 649.478 145.436 637.374 137.976C626.863 131.496 614.128 127.416 600.492 125.006C581.815 121.708 561.026 121.328 542.228 121.685C531.82 121.907 521.802 122.142 512.18 122.184C492.025 122.289 474.283 122.165 456.305 119.354C429.983 115.287 400.761 104.58 379.322 84.5987C377.114 82.5675 375.102 80.4912 373.156 78.4172C352.06 55.9219 345.772 33.814 347.858 13.9932C350.07 -7.62705 359.982 -30.1773 360.202 -58.4076C360.289 -66.9069 359.413 -75.7988 357.63 -84.7723C354.348 -101.473 347.891 -118.485 338.526 -134.048C324.162 -157.66 303.111 -177.577 281.074 -189.334" stroke="#FDCFA5" stroke-miterlimit="10"/>
<path d="M908.753 232.557C881.916 244.035 852.297 251.196 822.244 251.849C804.613 252.296 786.671 250.362 769.855 245.837C758.901 242.898 748.375 238.839 738.666 233.674C708.192 217.566 685.38 191.923 664.677 169.337C655.268 159.029 647.486 148.672 635.524 140.855C625.09 134.017 612.298 129.677 598.602 127.111C579.802 123.603 558.883 123.219 539.88 123.878C529.402 124.252 519.181 124.738 509.419 125.084C488.852 125.846 470.434 126.524 451.716 124.461C424.254 121.439 393.638 111.614 371.882 91.3636C369.674 89.3324 367.6 87.2026 365.655 85.077C344.764 62.2793 340.089 38.576 343.831 17.831C347.963 -4.85925 359.909 -27.9605 361.25 -56.6689C361.666 -65.3119 361.055 -74.3496 359.407 -83.4732C356.394 -100.423 349.88 -117.694 340.127 -133.321C325.249 -157.105 302.894 -176.911 279.217 -188.207" stroke="#FDCFA5" stroke-miterlimit="10"/>
<path d="M905.165 236.866C878.401 248.088 848.863 254.787 819.013 255.19C801.454 255.433 783.773 253.456 767.022 248.933C756.133 245.996 745.67 241.991 735.958 236.929C705.474 221.13 682.313 196.196 662.272 173.272C653.066 162.713 645.558 151.901 633.675 143.675C623.318 136.479 610.469 131.88 596.712 129.208C577.787 125.541 556.676 125.099 537.533 126.063C526.92 126.587 516.625 127.328 506.657 127.977C485.681 129.343 466.649 130.877 447.126 129.561C418.588 127.636 386.451 118.585 364.508 98.1227C362.302 96.0401 360.227 93.9102 358.282 91.7846C337.533 68.631 334.534 43.3858 339.997 21.7187C345.983 -1.99223 359.962 -25.6445 362.424 -54.8311C363.172 -63.6692 362.824 -72.8012 361.311 -82.0749C358.566 -99.2733 351.994 -116.753 341.92 -132.494C326.462 -156.451 302.868 -176.144 277.551 -186.979" stroke="#FDCFA5" stroke-miterlimit="10"/>
<path d="M901.58 241.134C874.955 252.103 845.432 258.339 815.72 258.489C798.296 258.581 780.749 256.506 764.192 251.99C753.369 249.055 743.034 245.106 733.316 240.198C702.886 224.762 679.248 200.482 659.931 177.272C650.93 166.411 643.696 155.196 631.89 146.612C621.609 139.057 608.768 134.252 594.822 131.368C575.775 127.491 554.531 127.096 535.12 128.309C524.372 128.983 514.003 129.979 503.896 130.933C482.508 132.955 462.798 135.343 442.537 134.723C412.856 133.946 379.33 125.622 357.133 104.945C354.862 102.86 352.853 100.732 350.911 98.5038C330.302 75.0455 328.981 48.207 336.1 25.6157C343.941 0.832661 359.954 -23.3706 363.601 -53.0331C364.679 -62.0149 364.598 -71.3443 363.218 -80.7166C360.743 -98.2152 354.111 -115.851 343.651 -131.708C327.614 -155.839 302.781 -175.418 275.823 -185.792" stroke="#FDCFA5" stroke-miterlimit="10"/>
<path d="M897.996 245.393C871.447 256.056 842 261.934 812.429 261.779C795.139 261.721 777.792 259.498 761.299 255.035C750.605 252.105 740.269 248.207 730.612 243.404C700.171 228.277 676.186 204.707 657.528 181.21C648.665 170.096 641.771 158.428 630.109 149.436C619.905 141.524 607.007 136.459 593.002 133.419C573.831 129.331 552.393 128.93 532.842 130.447C522.024 131.274 511.452 132.521 501.204 133.779C479.404 136.458 459.018 139.647 438.017 139.776C407.195 140.094 372.212 132.546 349.763 111.655C347.492 109.57 345.419 107.389 343.543 105.162C323.075 81.3483 323.365 52.9658 332.271 29.4031C342.032 3.6015 360.078 -21.1527 364.783 -51.3471C366.19 -60.4725 366.309 -69.9498 365.129 -79.4701C362.922 -97.2175 356.234 -115.113 345.449 -130.981C328.898 -155.283 302.762 -174.751 274.163 -184.664" stroke="#FDCFA5" stroke-miterlimit="10"/>
<path d="M894.404 249.705C867.993 260.115 838.561 265.53 809.193 265.124C792.039 264.917 774.825 262.594 758.526 258.138C747.898 255.21 737.624 251.366 728.029 246.668C697.643 231.852 673.244 208.989 655.248 185.154C646.655 173.739 639.97 161.666 628.384 152.317C618.255 144.097 605.367 138.724 591.236 135.576C572.007 131.281 550.374 130.873 530.618 132.692C519.665 133.669 509.019 135.171 498.569 136.68C476.357 140.015 455.358 144.009 433.553 144.884C401.656 146.249 365.216 139.529 342.514 118.423C340.245 116.287 338.172 114.105 336.232 111.825C315.97 87.7088 317.873 57.7307 328.499 33.246C340.115 6.37227 360.258 -18.8793 366.019 -49.554C367.823 -58.8724 368.142 -68.4976 367.097 -78.168C365.158 -96.1641 358.412 -114.268 347.241 -130.251C330.111 -154.728 302.735 -174.082 272.494 -183.482" stroke="#FDCFA5" stroke-miterlimit="10"/>
<path d="M890.818 253.965C864.481 264.068 835.127 269.124 805.899 268.414C788.881 268.005 771.799 265.635 755.63 261.184C745.067 258.257 734.92 254.52 725.321 249.925C694.925 235.418 670.179 213.214 652.84 189.143C644.451 177.477 638.041 164.95 626.596 155.244C616.545 146.666 603.599 141.085 589.409 137.729C570.057 133.224 548.228 132.861 528.333 134.933C517.31 136.062 506.528 137.766 495.871 139.629C473.249 143.569 451.572 148.416 429.025 150.091C395.987 152.552 358.156 146.61 335.201 125.29C332.932 123.153 330.796 120.918 328.921 118.641C308.8 94.1679 312.378 62.6995 324.662 37.2391C338.132 9.34468 360.309 -16.5094 367.256 -47.66C369.39 -57.1221 369.974 -66.8932 369.064 -76.7137C367.395 -95.0101 360.589 -113.27 349.097 -129.367C331.387 -154.018 302.773 -173.258 270.892 -182.198" stroke="#FDCFA5" stroke-miterlimit="10"/>
<path d="M887.165 258.276C860.902 268.124 831.629 272.719 802.539 271.756C785.656 271.196 768.772 268.731 752.668 264.281C742.168 261.408 732.086 257.674 722.549 253.184C692.207 238.988 667.113 217.493 650.37 193.081C642.186 181.113 636.047 168.234 624.684 158.067C614.709 149.131 601.707 143.29 587.392 139.776C567.917 135.06 545.958 134.693 525.795 137.014C514.637 138.293 503.781 140.253 492.984 142.42C470.014 147.069 447.597 152.665 424.31 155.088C390.132 158.594 350.844 153.479 327.636 131.945C325.302 129.806 323.232 127.522 321.358 125.244C301.377 100.467 306.632 67.4052 320.637 41.0228C336.024 12.1613 360.237 -14.2952 368.242 -45.9777C370.705 -55.5834 371.49 -65.5539 370.779 -75.4709C369.378 -94.016 362.514 -112.484 350.635 -128.697C332.411 -153.519 302.493 -172.648 268.972 -181.127" stroke="#FDCFA5" stroke-miterlimit="10"/>
<path d="M883.577 262.538C842.255 277.607 793.248 279.384 749.835 267.331C706.422 255.278 669.184 229.466 648.092 197.026C640.113 184.755 634.248 171.473 622.961 160.948C599.633 139.1 558.891 134.71 523.573 139.26C488.32 143.812 455.166 155.647 419.847 160.249C384.592 164.852 343.848 160.514 320.387 138.765C293.081 113.384 299.69 74.8022 316.866 44.9179C334.108 14.9842 360.352 -11.9718 369.543 -44.1303C377.559 -72.2054 371.359 -102.864 352.555 -127.86C333.752 -152.856 302.595 -171.871 267.434 -179.889" stroke="#FF7E07" stroke-miterlimit="10"/>
<path d="M872.669 264.133C831.623 278.747 783.214 280.132 740.457 267.895C697.7 255.657 660.91 230.066 640.462 197.802C632.494 185.222 627.102 171.389 616.216 160.516C594.13 138.452 554.771 133.541 520.591 137.098C486.476 140.657 454.012 151.279 419.106 155.173C383.742 159.154 342.785 155.375 318.656 134.171C290.741 109.492 295.718 71.1133 312.318 40.9523C328.918 10.7912 355.817 -16.2977 365.889 -47.6025C374.586 -74.676 368.997 -104.129 351.596 -128.306C334.196 -152.482 304.85 -171.231 270.996 -179.464" stroke="#FF7E07" stroke-miterlimit="10"/>
<path d="M861.699 265.676C820.994 279.786 773.117 280.828 730.949 268.456C688.781 256.084 652.508 230.612 632.769 198.526C624.812 185.587 619.955 171.307 609.471 160.087C588.691 137.86 550.65 132.375 517.673 134.941C484.633 137.453 452.858 146.913 418.364 150.15C382.892 153.458 341.653 150.34 316.857 129.629C288.268 105.7 291.746 67.4265 307.637 37.0874C323.528 6.74824 351.083 -20.5251 362.1 -50.9226C371.543 -76.9409 366.501 -105.294 350.504 -128.651C334.442 -152.01 306.972 -170.491 274.425 -178.938" stroke="#FF7E07" stroke-miterlimit="10"/>
<path d="M850.793 267.271C810.365 280.875 763.086 281.525 721.506 269.069C679.926 256.613 644.235 231.212 625.141 199.302C617.196 186.002 612.874 171.277 602.728 159.656C583.188 137.264 546.595 131.259 514.693 132.779C482.791 134.299 451.704 142.596 417.558 145.123C382.044 147.76 340.458 145.3 315.061 125.084C285.798 101.855 287.776 63.7377 302.958 33.2205C318.139 2.70329 346.414 -24.7008 358.38 -54.2939C368.436 -79.2098 364.138 -106.456 349.48 -129.047C334.821 -151.587 309.161 -169.75 277.922 -178.463" stroke="#FF7E07" stroke-miterlimit="10"/>
<path d="M839.817 268.868C799.729 282.02 752.917 282.273 711.994 269.632C671.07 256.992 635.895 231.712 617.443 200.029C609.51 186.369 605.721 171.248 595.915 159.175C577.615 136.669 542.407 130.041 511.644 130.517C480.882 130.992 450.484 138.126 416.685 139.996C380.996 142.008 339.261 140.11 313.131 120.437C283.196 97.9066 283.671 59.9975 298.146 29.2507C312.685 -1.49391 341.545 -28.9301 354.46 -57.7189C365.196 -81.5816 361.511 -107.726 348.257 -129.497C335.002 -151.269 311.152 -169.115 281.222 -178.093" stroke="#FFA14A" stroke-miterlimit="10"/>
<path d="M828.912 270.414C789.101 283.06 742.886 282.972 702.616 270.198C662.347 257.425 627.688 232.265 609.879 200.81C601.958 186.789 598.638 171.221 589.234 158.8C572.172 136.181 538.351 128.928 508.726 128.411C479.101 127.893 449.33 133.761 415.941 135.025C380.145 136.364 338.195 135.078 311.397 115.949C280.853 94.1196 279.699 56.3626 293.594 25.442C307.424 -5.48065 336.939 -33.0497 350.866 -61.0321C362.217 -83.8439 359.21 -108.832 347.358 -129.784C335.506 -150.737 313.467 -168.316 284.91 -177.507" stroke="#FFA14A" stroke-miterlimit="10"/>
<path d="M817.934 272.006C778.464 284.148 732.781 283.717 693.103 270.757C653.425 257.797 619.412 232.761 602.18 201.531C594.271 187.15 591.484 171.187 582.485 158.316C566.596 135.633 534.289 127.761 505.739 126.197C477.255 124.635 448.172 129.34 415.13 129.946C379.227 130.56 337.059 129.988 309.529 111.35C278.312 90.22 275.658 52.6194 288.845 21.4693C302.033 -9.68078 332.069 -37.2841 347.01 -64.46C358.91 -86.1715 356.712 -110.102 346.198 -130.237C335.685 -150.372 315.52 -167.632 288.272 -177.089" stroke="#FFA14A" stroke-miterlimit="10"/>
<path d="M807.03 273.606C767.838 285.241 722.75 284.469 683.662 271.374C644.573 258.279 611.208 233.317 594.554 202.312C586.657 187.571 584.338 171.211 575.742 157.941C561.023 135.245 530.171 126.648 502.824 124.093C475.412 121.536 447.022 124.976 414.391 124.926C378.381 124.866 335.932 124.903 307.8 106.812C275.974 86.3836 271.753 48.9887 284.233 17.609C296.713 -13.7706 327.334 -41.3546 343.291 -67.8269C355.74 -88.4381 354.286 -111.262 345.177 -130.629C336.066 -149.945 317.777 -166.937 291.771 -176.609" stroke="#FFA14A" stroke-miterlimit="10"/>
<path d="M796.056 275.145C757.203 286.328 712.649 285.161 674.215 271.934C635.78 258.706 602.998 233.814 586.921 203.034C579.036 187.933 577.249 171.23 568.995 157.456C555.381 134.745 526.048 125.426 499.839 121.878C473.567 118.277 445.754 121.942 413.581 119.845C377.516 117.517 334.799 119.761 305.934 102.212C273.5 82.4849 267.714 45.2443 279.549 13.6887C291.385 -17.8668 322.464 -45.5387 339.565 -71.2002C352.563 -90.7627 351.853 -112.48 344.145 -130.976C336.439 -149.524 319.958 -166.147 295.261 -176.085" stroke="#FFA14A" stroke-miterlimit="10"/>
<path d="M785.147 276.743C746.571 287.42 702.548 285.91 664.77 272.498C626.925 259.136 594.79 234.317 579.29 203.814C571.416 188.352 570.098 171.252 562.247 157.08C549.739 134.354 521.988 124.365 496.855 119.72C471.721 115.126 444.466 117.624 412.772 114.822C376.605 111.666 333.667 114.675 304.134 97.6715C271.027 78.643 263.74 41.5588 274.867 9.82515C285.993 -21.9085 317.593 -49.6146 335.774 -74.5189C349.256 -92.9833 349.419 -113.589 343.051 -131.32C336.683 -149.05 322.079 -165.405 298.688 -175.558" stroke="#FFA14A" stroke-miterlimit="10"/>
<path d="M774.179 278.335C735.879 288.506 692.453 286.655 655.265 273.108C618.076 259.561 586.587 234.867 571.599 204.587C563.803 188.767 562.885 171.32 555.506 156.647C544.102 133.958 517.872 123.196 493.877 117.557C469.882 111.919 443.369 111.659 411.969 109.794C375.509 107.608 332.54 109.637 302.275 93.1241C268.56 74.7968 259.642 37.8647 270.125 5.95518C280.607 -25.9544 312.598 -53.6991 331.991 -77.8934C345.892 -95.2618 346.929 -114.808 341.964 -131.719C336.999 -148.631 324.206 -164.719 302.123 -175.086" stroke="#FFA14A" stroke-miterlimit="10"/>
<path d="M763.267 279.883C725.309 289.549 682.416 287.304 645.815 273.673C609.215 260.043 578.375 235.37 563.965 205.315C556.18 189.135 555.664 171.34 548.756 156.168C538.393 133.462 513.812 121.981 490.89 115.348C468.033 108.716 442.212 107.191 411.222 104.722C374.656 101.81 331.47 104.502 300.535 88.5855C266.213 70.9081 255.728 34.2332 265.503 2.09414C275.278 -30.045 307.723 -57.7746 328.261 -81.2096C342.582 -97.5335 344.491 -115.917 340.929 -132.009C337.367 -148.101 326.383 -163.872 305.609 -174.505" stroke="#FFA14A" stroke-miterlimit="10"/>
<path d="M752.291 281.48C714.608 290.692 672.313 288.054 636.369 274.239C600.424 260.424 570.232 235.824 556.332 206.044C548.625 189.506 548.511 171.364 542.008 155.741C532.616 133.118 509.686 120.868 487.969 113.192C466.252 105.517 441.058 102.724 410.478 99.6501C373.743 95.9599 330.402 99.3679 298.799 83.9962C263.87 67.02 251.818 30.4994 260.951 -1.86707C270.084 -34.2336 302.789 -61.9546 324.668 -84.6753C339.278 -99.9075 342.257 -117.225 340.033 -132.5C337.808 -147.775 328.701 -163.277 309.234 -174.125" stroke="#FFA14A" stroke-miterlimit="10"/>
<path d="M741.388 283.022C704.048 291.73 662.284 288.749 626.929 274.799C591.574 260.849 562.094 236.324 548.772 206.769C541.078 189.819 541.364 171.382 535.333 155.26C526.915 132.669 505.635 119.649 485.056 110.98C464.412 102.31 439.912 98.2002 409.74 94.5728C372.899 90.1578 329.407 94.2307 297.006 79.3994C261.468 63.1244 247.852 26.758 256.275 -5.78652C264.698 -38.3311 297.73 -66.0929 320.884 -88.0499C335.85 -102.24 339.765 -118.393 338.945 -132.9C338.126 -147.406 330.828 -162.591 312.669 -173.653" stroke="#FFA14A" stroke-miterlimit="10"/>
<path d="M730.415 284.617C693.352 292.819 652.119 289.495 617.419 275.412C582.718 261.329 553.888 236.825 541.075 207.597C533.458 190.288 534.015 171.499 528.584 154.933C521.14 132.375 501.576 118.587 482.072 108.872C462.567 99.1567 438.694 93.7799 408.93 89.5993C371.92 84.4056 328.274 89.1949 295.205 74.9082C259.06 59.283 243.811 23.1718 251.592 -9.60021C259.373 -42.3722 292.601 -70.179 317.094 -91.3703C332.285 -104.522 337.269 -119.558 337.85 -133.194C338.434 -146.881 332.946 -161.748 316.097 -173.127" stroke="#FFA14A" stroke-miterlimit="10"/>
<path d="M719.504 286.214C682.78 293.964 642.081 290.245 607.971 275.976C573.862 261.706 545.807 237.332 533.442 208.324C525.902 190.657 526.794 171.57 521.836 154.453C515.3 131.976 497.451 117.421 479.086 106.661C460.722 95.9018 437.475 89.2576 408.12 84.5237C370.941 78.5515 327.143 84.0055 293.339 70.3129C256.586 55.3889 239.771 19.432 246.908 -13.5159C253.98 -46.466 287.406 -74.3692 313.367 -94.739C328.851 -106.902 334.834 -120.72 336.82 -133.587C338.807 -146.455 335.13 -161.057 319.588 -172.65" stroke="#FFA14A" stroke-miterlimit="10"/>
<path d="M708.531 287.756C672.084 294.999 631.981 290.94 598.526 276.537C565.071 262.135 537.666 237.781 525.812 209.048C518.35 190.972 519.513 171.584 515.091 153.97C509.464 131.523 493.33 116.2 476.104 104.448C458.877 92.6956 436.261 84.681 407.313 79.4452C370.031 72.6453 326.012 78.8649 291.54 65.717C254.181 51.4428 235.799 15.6915 242.227 -17.4344C248.656 -50.6119 282.215 -78.6138 309.58 -98.1642C325.226 -109.343 332.403 -121.936 335.729 -134.038C339.054 -146.088 337.252 -160.37 323.083 -172.227" stroke="#FFA14A" stroke-miterlimit="10"/>
<path d="M697.622 289.352C661.517 296.092 621.945 291.689 589.08 277.152C556.214 262.614 529.587 238.338 518.18 209.826C510.796 191.392 512.23 171.652 508.342 153.592C503.625 131.175 489.272 115.087 473.183 102.341C457.096 89.5448 435.172 80.2649 406.567 74.4737C369.181 66.8974 324.943 73.8312 289.739 61.2258C251.771 47.6528 231.822 12.1073 237.544 -21.2997C243.266 -54.7067 276.96 -82.8587 305.854 -101.482C321.727 -111.675 329.971 -123.098 334.699 -134.33C339.426 -145.561 339.435 -159.576 326.574 -171.648" stroke="#FFA14A" stroke-miterlimit="10"/>
<path d="M686.716 290.953C650.888 297.186 611.913 292.443 579.638 277.718C547.364 262.994 521.449 238.794 510.552 210.607C503.246 191.764 504.883 171.773 501.664 153.168C497.789 130.831 485.216 113.977 470.267 100.187C455.318 86.3978 434.024 75.7474 405.828 69.403C368.274 60.9966 323.881 68.6982 288.008 56.6375C249.434 43.7143 227.853 8.37239 232.931 -25.2105C238.009 -58.7934 271.712 -87.2028 302.133 -104.848C318.106 -114.11 327.542 -124.257 333.674 -134.721C339.741 -145.186 341.625 -158.882 330.071 -171.168" stroke="#FFA14A" stroke-miterlimit="10"/>
<path d="M675.742 292.494C640.189 298.273 601.813 293.086 570.127 278.278C538.505 263.473 513.306 239.244 502.855 211.33C495.626 192.128 497.47 171.784 494.851 152.735C491.819 130.426 481.092 112.808 467.218 97.9723C453.343 83.1363 432.744 71.1693 404.954 64.323C367.297 55.0887 322.751 63.5066 286.078 52.0378C246.898 39.7644 223.75 4.62822 228.183 -29.1306C232.552 -62.8916 266.265 -91.6098 298.279 -108.275C314.418 -116.655 325.047 -125.527 332.517 -135.173C339.987 -144.819 343.68 -158.197 333.435 -170.748" stroke="#FFA14A" stroke-miterlimit="10"/>
<path d="M664.836 294.092C629.559 299.364 591.715 293.834 560.683 278.893C529.653 263.901 505.231 239.75 495.226 212.108C488.14 192.499 490.059 171.848 488.106 152.306C485.854 130.022 476.973 111.642 464.236 95.8127C451.5 79.9839 431.595 66.6486 404.212 59.3005C366.455 49.1869 321.686 58.4219 284.346 47.4977C244.558 35.8741 219.844 0.943673 223.568 -32.9932C227.292 -66.9301 260.954 -96.0623 294.621 -111.591C310.925 -119.089 322.681 -126.635 331.553 -135.462C340.426 -144.288 345.931 -157.4 336.993 -170.166" stroke="#FFA14A" stroke-miterlimit="10"/>
<path d="M653.862 295.686C618.927 300.455 581.614 294.581 551.238 279.456C520.862 264.332 497.153 240.255 487.596 212.835C480.587 192.867 482.713 171.863 481.359 151.876C479.887 129.619 472.849 110.526 461.252 93.653C449.655 76.7798 430.446 62.0763 403.402 54.2757C365.543 43.3343 320.555 53.2835 282.48 42.9533C242.086 31.9795 215.803 -2.69381 218.82 -36.8603C221.837 -71.0267 255.449 -100.624 290.766 -114.964C307.238 -121.633 320.12 -127.853 330.396 -135.861C340.607 -143.87 347.988 -156.714 340.357 -169.694" stroke="#FFA14A" stroke-miterlimit="10"/>
<path d="M642.952 297.23C608.359 301.495 571.578 295.278 541.791 280.018C512.005 264.758 489.14 240.71 479.962 213.611C473.097 193.236 475.233 171.923 474.676 151.447C473.982 129.216 468.789 109.36 458.331 91.4937C447.872 73.6276 429.293 57.5537 402.656 49.2513C364.761 37.4327 319.486 48.1968 280.743 38.4113C239.743 28.0873 211.893 -6.38021 214.265 -40.7226C216.639 -75.1165 250.204 -105.231 287.168 -118.28C303.809 -124.17 317.879 -128.96 329.494 -136.201C341.11 -143.442 350.364 -155.915 343.977 -169.163" stroke="#FFA14A" stroke-miterlimit="10"/>
<path d="M631.983 298.825C597.664 302.635 561.481 296.026 532.349 280.633C503.217 265.24 481.067 241.215 472.335 214.389C465.611 193.658 467.824 171.986 467.933 151.018C468.021 128.76 464.737 108.195 455.416 89.3358C446.096 70.4253 428.213 52.9831 401.918 44.1768C363.921 31.4789 318.492 43.0108 279.014 33.8193C237.407 24.145 207.925 -10.1189 209.655 -44.6887C211.385 -79.2584 244.907 -110.044 283.452 -121.753C300.262 -126.864 315.456 -130.277 328.473 -136.647C341.491 -143.069 352.556 -155.276 347.477 -168.738" stroke="#FFA14A" stroke-miterlimit="10"/>
<path d="M621.074 300.423C587.097 303.729 551.445 296.777 522.904 281.197C494.362 265.669 472.989 241.722 464.705 215.117C458.124 193.978 460.348 171.998 461.187 150.59C462.053 128.358 460.613 107.081 452.433 87.1259C444.252 67.2226 427.064 48.4122 401.111 39.1019C363.08 25.4753 317.363 37.8221 277.15 29.2246C234.937 20.2001 203.886 -13.8065 204.909 -48.6059C205.932 -83.4052 239.409 -114.811 279.596 -125.073C296.576 -129.406 312.893 -131.391 327.314 -136.993C341.735 -142.596 354.61 -154.485 350.841 -168.265" stroke="#FFA14A" stroke-miterlimit="10"/>
<path d="M610.1 301.969C576.4 304.769 541.28 297.474 513.394 281.761C485.507 266.049 464.912 242.179 457.009 215.844C450.57 194.349 452.807 171.957 454.376 150.11C455.958 127.85 456.491 105.865 449.385 84.9154C442.278 63.9656 425.851 43.7891 400.237 34.0263C362.171 19.5225 316.169 32.6328 275.286 24.6315C232.468 16.2053 199.848 -17.5442 200.162 -52.5215C200.476 -87.4989 234.047 -119.777 275.81 -128.545C293.025 -132.149 310.464 -132.705 326.224 -137.49C341.983 -142.275 356.734 -153.896 354.273 -167.89" stroke="#FFA14A" stroke-miterlimit="10"/>
<path d="M599.194 303.559C565.835 305.907 531.249 298.165 503.95 282.369C476.654 266.522 456.902 242.68 449.378 216.667C443.083 194.765 445.33 172.064 447.694 149.778C450.057 127.493 452.434 104.797 446.465 82.8539C440.497 60.9112 424.831 39.3172 399.493 29.0998C361.392 13.6674 315.101 27.6441 273.486 20.1853C230.059 12.4604 195.874 -21.1348 195.544 -56.2882C195.213 -91.4415 228.813 -124.595 272.083 -131.767C289.601 -134.691 308.03 -133.719 325.193 -137.685C342.355 -141.651 358.917 -153.006 357.763 -167.214" stroke="#FFA14A" stroke-miterlimit="10"/>
</g>
<defs>
<clipPath id="clip0_161_111">
<rect width="481" height="300" fill="white"/>
</clipPath>
</defs>
</svg>
