<svg width="1920" height="990" viewBox="0 0 1920 990" fill="none" xmlns="http://www.w3.org/2000/svg">
<g clip-path="url(#clip0_161_111)">
<path d="M2263.04 1008.14C2147.97 1057.86 2026.08 1101.87 1896.72 1117.24C1767.64 1132.47 1629.51 1115.73 1534.87 1054.9C1421.87 982.214 1380.48 855.72 1248.15 802.784C1162.49 768.548 1056.92 772.689 957.174 772.432C857.183 772.163 749.158 763.841 681.739 712.397C560.893 620.151 631.056 437.908 497.949 355.234C410.052 300.758 276.395 316.392 160.287 304.396C13.4237 289.147 -117.945 222.631 -187.733 128.06C-257.52 33.4897 -264.2 -87.2692 -205.804 -191.922" stroke="#FDCFA5" stroke-miterlimit="10"/>
<path d="M2247.69 1021.91C2133.26 1070.88 2011.58 1113.62 1883.17 1127.92C1805.7 1136.64 1724.92 1133.81 1652.42 1116.98C1605.06 1106.02 1561.23 1088.92 1524 1065.35C1411.17 993.613 1367.2 869.673 1238.38 815.268C1192.57 795.953 1141.66 787.245 1088.15 783.27C1042.85 779.893 995.88 779.837 949.739 779.176C885.03 778.341 816.382 774.862 757.53 759.401C724.94 750.853 695.312 738.728 670.845 721.519C622.578 687.786 601.528 641.371 586.103 592.169C563.6 521.323 552.159 444.407 489.96 391.588C483.392 385.881 476.014 380.619 468.116 375.492C381.144 319.897 253.64 330.994 144.721 316.124C38.0474 301.374 -58.369 256.968 -127.675 192.732C-147.697 174.135 -165.251 153.883 -180.376 132.298C-207.39 93.3602 -225.352 50.3561 -234.127 6.21577C-247.485 -59.4369 -240.702 -127.431 -212.149 -188.75" stroke="#FDCFA5" stroke-miterlimit="10"/>
<path d="M2232.59 1035.88C2118.58 1083.92 1997.36 1125.41 1869.6 1138.93C1792.48 1147.19 1712.51 1144.08 1640.54 1127.26C1593.45 1116.32 1549.85 1099.54 1512.61 1076.12C1399.93 1005.49 1353.9 883.973 1228.31 828.247C1183.1 808.304 1133.66 798.044 1080.83 792.803C1035.94 788.309 988.838 787.433 942.506 786.436C877.404 784.93 808.284 781.423 748.584 766.883C715.697 758.802 685.73 747.464 660.173 731C610.434 699.12 586.303 655.278 567.837 608.326C540.905 540.781 523.656 466.114 460.564 412.57C453.748 406.847 446.643 401.434 438.748 396.304C352.43 339.74 231.569 346.32 129.873 328.251C30.3818 310.624 -58.0011 264.509 -122.339 198.877C-141.045 179.853 -157.783 159.146 -172.094 137.106C-197.998 97.3934 -216.121 53.7081 -226.35 9.14228C-241.638 -57.135 -239.909 -124.946 -217.806 -185.015" stroke="#FDCFA5" stroke-miterlimit="10"/>
<path d="M2217.52 1049.68C2104.15 1096.97 1983.14 1137.19 1856.04 1149.78C1779.52 1157.41 1700.35 1154.18 1628.91 1137.39C1582.33 1126.46 1538.98 1109.86 1501.71 1086.75C1388.95 1017.05 1340.62 897.955 1218.22 841.072C1173.87 820.351 1125.63 808.688 1073.21 802.328C1028.73 796.715 981.727 795.194 934.993 793.524C869.496 791.345 799.653 787.798 739.354 774.194C705.919 766.567 675.382 755.844 649.194 740.476C597.733 710.439 571.002 669.364 549.265 624.491C517.678 560.079 494.584 487.993 430.867 433.576C424.054 427.851 416.971 422.274 409.1 416.981C323.452 359.287 208.976 361.332 114.703 340.398C22.1354 319.879 -57.7242 272.081 -117.578 204.868C-134.97 185.417 -150.624 164.108 -164.39 141.761C-189.167 101.115 -207.473 56.9111 -218.904 11.9353C-236.371 -54.9767 -239.442 -122.587 -223.805 -181.239" stroke="#FFC087" stroke-miterlimit="10"/>
<path d="M2202.44 1063.51C2089.47 1109.86 1968.91 1148.81 1842.7 1160.64C1766.77 1167.82 1688.16 1164.3 1617.23 1147.52C1570.92 1136.6 1527.81 1120.17 1490.74 1097.55C1377.9 1028.79 1327.51 912.139 1208.32 853.938C1164.57 832.59 1117.77 819.535 1066.05 811.746C1021.95 805.175 974.838 802.671 927.682 800.49C861.788 797.638 791.447 794.226 730.069 781.371C696.314 774.374 665.228 764.105 638.158 749.822C584.975 721.631 555.684 683.004 530.619 640.699C494.607 579.603 465.712 509.779 400.849 454.628C394.058 448.74 386.728 443.147 379.109 437.864C294.357 379.218 186.009 376.712 98.9214 352.735C13.518 329.336 -58.0767 279.844 -113.202 211.065C-129.262 191.026 -143.873 169.438 -157.076 146.624C-180.747 105.206 -199.195 60.164 -212.099 14.9285C-231.744 -52.6149 -239.362 -120.007 -230.414 -177.413" stroke="#F29137" stroke-miterlimit="10"/>
<path d="M2187.37 1077.51C2074.79 1123.08 1954.67 1160.77 1829.12 1171.66C1753.77 1178.39 1675.99 1174.42 1605.32 1157.81C1559.26 1146.91 1516.39 1130.64 1479.55 1108.35C1366.86 1040.55 1313.92 926.321 1198.17 866.98C1155.03 844.843 1109.67 830.395 1058.35 821.486C1014.66 813.795 967.409 810.47 920.057 807.952C854.014 804.441 782.696 800.974 720.715 789.058C686.411 782.517 654.983 773.039 627.301 759.694C572.395 733.353 540.276 697.326 512.173 657.284C471.759 599.346 436.795 531.939 371.283 476.083C364.245 470.178 357.186 464.436 349.589 458.99C265.481 399.379 163.522 392.169 83.8419 365.324C5.36708 338.869 -57.7406 287.857 -108.412 217.663C-123.161 197.198 -136.69 175.009 -149.35 151.89C-171.917 109.703 -190.529 63.9844 -204.655 18.5047C-226.248 -49.4925 -238.89 -116.851 -236.378 -172.994" stroke="#F29137" stroke-miterlimit="10"/>
<path d="M2172.24 1091.33C2060.3 1136.14 1940.39 1172.39 1815.48 1182.51C1740.71 1188.78 1663.49 1184.51 1593.58 1167.94C1548.05 1157.06 1505.42 1140.96 1468.54 1118.98C1355.76 1052.13 1300.77 940.349 1188.21 879.853C1145.68 856.926 1101.76 841.085 1050.85 831.054C1007.54 822.405 960.424 818.109 912.649 815.079C846.207 810.894 774.413 807.4 711.602 796.248C676.998 790.177 645 781.316 616.437 769.057C560.058 744.58 524.864 711.142 493.725 673.363C448.642 618.735 408.133 553.61 341.724 497.034C334.688 491.127 327.383 485.369 319.808 479.759C236.363 419.022 140.773 407.266 68.267 377.375C-3.05344 348.035 -58.1362 295.153 -103.857 223.568C-117.295 202.677 -130.013 180.035 -141.861 156.462C-163.303 113.342 -182.099 67.108 -197.676 21.2082C-221.445 -47.4188 -238.878 -114.57 -242.797 -169.449" stroke="#F29137" stroke-miterlimit="10"/>
<path d="M2156.87 1105.33C2045.33 1149.2 1925.87 1184.19 1801.85 1193.54C1727.68 1199.19 1651.25 1194.8 1581.62 1178.23C1536.34 1167.36 1493.95 1151.43 1457.27 1129.95C1344.64 1064.21 1287.39 954.548 1178.26 892.908C1136.34 869.19 1093.85 852.116 1043.63 840.654C1000.72 830.882 953.454 825.925 905.505 822.396C838.667 817.537 766.127 814.164 702.736 803.791C667.584 798.176 634.996 790.093 605.843 778.613C547.744 755.987 509.956 725.328 475.554 689.64C426.075 638.174 379.754 575.482 312.201 518.171C305.187 512.1 297.884 506.34 290.311 500.728C207.512 439.024 118.305 422.557 53.2001 389.792C-11.1984 357.391 -57.8028 302.985 -99.0535 229.82C-111.162 208.34 -122.839 185.418 -134.105 161.216C-154.443 117.324 -173.132 70.2643 -190.179 24.1056C-215.873 -45.139 -238.323 -112.258 -248.691 -165.711" stroke="#F29137" stroke-miterlimit="10"/>
<path d="M2141.79 1119.15C2030.63 1162.25 1911.62 1195.97 1788.25 1204.38C1714.41 1209.57 1638.8 1204.89 1569.93 1188.36C1524.89 1177.65 1483.01 1161.75 1446.06 1140.56C1333.33 1075.78 1274.05 968.411 1168.08 905.776C1126.75 881.431 1085.47 862.786 1035.9 850.214C993.38 839.483 945.996 833.54 897.623 829.499C830.386 823.965 757.369 820.565 692.879 811.106C657.427 805.962 624.27 798.497 594.236 788.105C534.417 767.334 493.806 739.281 456.371 705.861C402.228 657.711 350.119 597.293 281.918 539.276C274.906 533.203 267.625 527.279 260.075 521.504C178.187 458.687 94.8607 437.478 37.3785 402.013C-20.3527 366.536 -58.2359 310.621 -95.0404 236.038C-105.84 214.132 -116.437 190.608 -127.162 166.101C-146.398 121.438 -165.25 73.7008 -183.745 27.1229C-211.613 -42.7505 -238.849 -109.659 -255.641 -161.846" stroke="#F29137" stroke-miterlimit="10"/>
<path d="M2126.69 1133.01C2016.18 1175.18 1897.12 1207.61 1774.63 1215.25C1701.37 1219.98 1626.32 1215.01 1557.97 1198.5C1513.45 1187.82 1471.54 1172.23 1434.82 1151.21C1322.01 1087.37 1260.69 982.461 1157.91 918.507C1117.2 893.37 1077.35 873.329 1028.21 859.471C986.094 847.616 938.826 840.863 890.03 836.309C822.397 830.099 748.905 826.672 683.566 818.142C647.567 813.455 613.821 806.77 583.426 797.332C521.89 778.416 478.458 752.971 437.994 721.82C379.46 676.838 321.547 618.857 252.452 560.118C245.193 554.03 237.935 547.942 230.636 542.177C149.391 478.393 72.4623 452.304 22.1023 414.11C-28.695 375.404 -58.11 317.964 -90.2213 241.974C-99.7121 219.64 -109.499 195.662 -119.413 170.7C-137.547 125.264 -156.562 76.8482 -176.256 29.8628C-206.296 -40.6418 -238.314 -107.342 -261.526 -158.262" stroke="#F29137" stroke-miterlimit="10"/>
<path d="M2111.61 1147.01C2001.49 1188.4 1882.87 1219.55 1761.29 1226.27C1688.63 1230.38 1614.38 1225.12 1546.28 1208.78C1502.02 1198.11 1460.35 1182.69 1423.83 1162.17C1311.18 1099.3 1247.83 996.684 1147.96 931.721C1108.11 905.806 1069.45 884.354 1020.96 869.386C979.245 856.407 931.822 848.991 882.852 843.937C814.822 837.052 740.603 833.585 674.664 825.997C638.366 821.781 604.031 815.877 572.777 807.367C509.523 790.308 463.52 767.487 419.778 738.595C356.586 696.933 292.891 641.231 222.881 581.933C215.644 575.681 208.388 569.591 200.862 563.65C120.279 498.737 49.4728 467.914 6.74729 426.854C-37.1417 385.081 -58.0945 326.116 -85.7446 248.545C-93.9079 225.622 -102.636 201.203 -112.01 175.935C-129.022 129.565 -148.2 80.4728 -169.362 33.2299C-201.324 -37.8907 -238.371 -104.394 -268 -154.043" stroke="#FDCFA5" stroke-miterlimit="10"/>
<path d="M2096.53 1160.86C1986.81 1201.3 1868.64 1231.19 1747.69 1237.13C1675.62 1240.78 1601.93 1235.22 1534.59 1218.92C1490.59 1208.26 1449.42 1193.02 1412.87 1172.82C1300.13 1110.89 1234.77 1010.42 1138.04 944.618C1098.8 917.91 1061.58 895.06 1013.52 878.805C972.18 864.864 924.644 856.461 875.501 850.906C807.322 843.358 732.36 840.013 665.594 833.192C628.748 829.434 594.094 824.163 561.962 816.744C496.992 801.543 448.172 781.335 401.404 754.715C333.578 716.214 264.314 663.129 193.43 602.948C186.196 596.693 178.692 590.588 171.438 584.496C91.4977 518.615 27.1005 482.742 -8.53211 439.112C-45.2269 393.957 -57.991 333.615 -80.9737 254.797C-87.8302 231.447 -95.5002 206.586 -104.313 180.849C-120.225 133.706 -139.565 83.9349 -161.925 36.2847C-196.056 -35.4666 -237.88 -101.76 -273.922 -150.14" stroke="#FDCFA5" stroke-miterlimit="10"/>
<path d="M2081.42 1174.88C1972.33 1214.55 1854.36 1243.16 1734.07 1248.15C1662.57 1251.35 1589.69 1245.51 1522.62 1229.21C1478.88 1218.56 1437.95 1203.49 1401.62 1183.62C1289.02 1122.82 1221.41 1024.47 1127.85 957.514C1089.22 930.015 1053.43 905.765 1005.78 888.384C964.841 873.318 917.419 864.102 867.585 858.182C799.01 849.958 723.323 846.572 655.71 840.682C618.317 837.383 583.075 832.894 550.334 826.418C483.399 813.063 432.013 795.483 382.22 771.138C309.741 735.963 234.703 685.159 163.174 624.27C155.693 618 148.461 611.744 141.229 605.488C62.1785 538.653 4.18593 497.728 -24.3584 451.524C-54.1326 403.136 -58.4642 341.428 -76.9909 261.027C-82.5213 237.087 -89.3825 211.771 -97.4066 185.742C-112.218 137.825 -131.722 87.3757 -155.527 39.3055C-191.826 -33.0759 -238.424 -99.158 -280.876 -146.266" stroke="#FDCFA5" stroke-miterlimit="10"/>
<path d="M2066.11 1188.74C1957.42 1227.47 1839.9 1254.8 1720.49 1259.03C1649.59 1261.61 1577.25 1255.63 1510.95 1239.36C1467.72 1228.74 1427.03 1213.84 1390.65 1194.45C1277.96 1134.6 1208.57 1038.57 1117.92 970.599C1079.92 942.144 1045.53 916.819 998.565 897.999C958.033 881.807 910.478 871.765 860.471 865.344C791.501 856.443 715.34 853.03 646.88 848.071C609.19 845.244 573.381 841.375 540.031 835.843C471.364 824.511 417.184 809.385 364.368 787.317C287.51 755.321 206.682 706.962 134.012 645.337C126.554 638.904 119.324 632.645 112.094 626.387C33.7055 558.421 -17.9058 512.601 -39.1171 463.836C-61.7058 412.061 -57.8585 348.974 -71.9519 267.148C-76.1772 242.78 -81.9817 217.023 -89.4458 190.524C-103.138 141.671 -122.803 90.5422 -147.845 42.3886C-186.062 -30.6109 -237.679 -96.4955 -286.556 -142.169" stroke="#FFD3BD" stroke-miterlimit="10"/>
<path d="M2051.03 1202.61C1942.73 1240.56 1825.67 1266.46 1706.89 1269.9C1636.32 1272.01 1564.81 1265.58 1499.01 1249.5C1456.04 1238.89 1415.59 1224.16 1379.18 1205.08C1266.65 1146.2 1195.26 1052.31 1107.49 983.497C1070.34 954.262 1037.14 927.522 990.581 907.576C950.43 890.419 902.741 879.55 852.581 872.466C783.214 862.887 706.311 859.597 637.273 855.421C599.036 853.053 562.64 849.967 528.682 845.38C458.301 835.91 401.309 823.402 345.452 803.775C263.948 775.109 177.601 729.05 104.039 666.703C96.5822 660.267 89.1259 653.831 82.1667 647.422C4.41938 578.487 -40.5464 527.621 -54.9064 476.105C-70.3343 421.105 -58.3134 356.638 -67.7277 273.402C-70.6487 248.605 -75.3767 222.244 -82.3014 195.439C-94.8947 145.812 -114.723 94.0037 -141.208 45.43C-181.592 -28.1998 -237.977 -93.8723 -293.255 -138.272" stroke="#FFD3BD" stroke-miterlimit="10"/>
<path d="M2035.93 1216.63C1928.27 1253.65 1811.39 1278.42 1693.27 1280.93C1623.28 1282.57 1552.57 1275.86 1487.06 1259.63C1444.35 1249.02 1404.14 1234.46 1367.95 1215.72C1255.34 1157.79 1181.95 1066.05 1097.33 996.232C1060.79 966.203 1028.77 938.048 982.862 916.986C943.113 898.702 895.54 887.019 844.938 879.582C775.176 869.325 697.799 866.008 627.917 862.764C589.362 861.031 552.4 858.567 517.586 854.911C445.494 847.305 385.941 837.431 326.817 820.071C240.67 794.737 148.56 750.965 74.3553 687.909C66.6527 681.457 59.4671 674.87 52.2615 668.446C-24.5758 598.392 -63.1683 542.625 -70.4527 488.53C-78.4555 430.153 -58.5143 364.29 -63.5007 279.629C-65.0981 254.242 -68.7906 227.6 -75.1358 200.163C-86.6108 149.599 -106.622 97.2731 -134.301 48.2918C-176.849 -25.9695 -237.998 -91.4303 -299.921 -134.569" stroke="#FDCFA5" stroke-miterlimit="10"/>
<path d="M2020.85 1230.5C1913.58 1266.74 1797.16 1290.07 1679.68 1291.79C1610.27 1292.98 1540.12 1285.97 1475.37 1269.77C1433.18 1259.19 1393.21 1244.8 1356.97 1226.54C1244.52 1169.58 1169.13 1079.98 1087.39 1009.31C1051.71 978.503 1020.87 948.931 975.637 926.591C936.289 907.179 888.584 894.668 837.81 886.729C767.654 875.794 689.556 872.436 618.849 869.964C579.75 868.691 542.45 867.023 506.781 864.301C432.96 858.722 370.618 851.308 308.478 836.229C217.713 814.069 120.073 772.761 44.729 708.968C37.0288 702.514 29.597 695.912 22.6622 689.336C-53.534 618.312 -85.2604 557.666 -85.9502 500.802C-86.5526 439.207 -58.4477 371.961 -58.989 285.712C-59.2836 259.895 -61.9011 232.648 -67.7075 204.904C-78.085 153.564 -97.9891 100.408 -127.131 51.1682C-171.592 -23.7119 -237.752 -88.974 -306.067 -130.837" stroke="#FDCFA5" stroke-miterlimit="10"/>
<path d="M2005.75 1244.37C1898.89 1279.66 1782.89 1301.88 1666.31 1302.67C1597.5 1303.24 1528.14 1296.1 1463.66 1279.91C1421.71 1269.5 1381.98 1255.29 1345.98 1237.19C1233.42 1181.35 1156.3 1093.75 1077.46 1022.07C1042.41 990.304 1012.98 959.49 968.152 936.02C929.206 915.479 881.348 902.302 830.173 893.685C759.872 882.084 681.053 878.687 609.503 877.148C570.107 876.348 532.054 874.803 495.947 873.689C420.276 871.113 355.269 865.187 290.115 852.392C194.962 833.582 91.3185 794.553 15.3335 730.049C7.65577 723.431 0.226425 716.826 -6.68617 710.086C-82.2214 637.928 -107.334 572.387 -100.957 512.941C-94.1639 448.126 -58.129 379.321 -54.2682 291.806C-53.0127 265.573 -54.8242 237.87 -60.072 209.656C-69.3528 157.54 -89.4187 103.703 -120.001 54.0421C-166.624 -21.47 -237.542 -86.5198 -312.246 -127.106" stroke="#FDCFA5" stroke-miterlimit="10"/>
<path d="M1990.68 1258.41C1884.44 1292.93 1768.67 1313.7 1652.72 1313.71C1584.49 1313.81 1515.71 1306.21 1451.97 1290.22C1410.28 1279.82 1370.79 1265.78 1334.99 1248.18C1222.35 1193.29 1143.73 1107.87 1067.52 1035.32C1033.32 1002.77 1005.08 970.539 960.673 945.776C922.108 924.267 874.386 910.112 822.772 901.141C752.077 888.862 672.519 885.586 600.394 884.833C560.454 884.494 522.004 884.234 485.123 883.405C407.867 881.723 339.916 879.559 271.77 868.887C171.984 853.417 62.8385 816.694 -14.0351 751.465C-21.9586 744.832 -29.1173 738.076 -36.0277 731.333C-110.922 658.203 -129.177 587.777 -115.946 525.408C-101.762 457.37 -57.8223 387.166 -49.522 298.061C-46.9454 271.236 -47.9516 243.075 -52.4129 214.566C-60.5775 161.511 -80.8254 107.156 -112.6 57.0862C-161.402 -18.8962 -236.806 -83.8825 -318.142 -123.204" stroke="#FDCFA5" stroke-miterlimit="10"/>
<path d="M1975.34 1272.3C1869.5 1305.87 1754.15 1325.52 1638.86 1324.58C1571.2 1324.23 1502.99 1316.33 1439.76 1300.36C1398.58 1289.98 1359.33 1276.11 1323.5 1258.83C1211.02 1204.91 1130.41 1121.65 1057.07 1048.25C1023.75 1014.75 996.672 981.262 952.915 955.381C914.751 932.742 866.896 917.757 815.11 908.283C744.021 895.325 663.992 892.022 591.025 892.204C550.789 892.339 511.506 892.852 474.019 892.971C395.036 893.321 324.303 893.622 253.147 885.237C148.751 872.947 34.0658 838.857 -43.9246 772.729C-51.8457 766.093 -59.2303 759.159 -66.1185 752.252C-140.125 678.164 -151.775 602.836 -131.962 537.692C-110.144 466.444 -58.2841 394.679 -45.5673 304.145C-41.6905 276.89 -41.6434 248.285 -45.5469 219.306C-52.6161 165.474 -73.0059 110.276 -106.24 59.9473C-156.952 -16.6538 -237.357 -81.4397 -325.073 -119.481" stroke="#FDCFA5" stroke-miterlimit="10"/>
<path d="M1960.26 1286.34C1854.81 1319.12 1739.93 1337.33 1625.51 1335.62C1558.21 1334.63 1491.03 1326.62 1428.07 1310.66C1387.15 1300.29 1348.14 1286.59 1312.28 1269.63C1199.72 1216.67 1117.61 1135.58 1046.91 1061.16C1014.45 1026.88 988.551 991.969 945.216 964.794C907.453 941.023 859.465 925.209 807.488 915.394C735.986 901.918 655.258 898.413 581.697 899.544C540.917 900.14 501.298 901.453 462.959 902.507C382.271 904.727 308.985 907.671 234.573 901.561C125.798 892.63 5.12075 860.823 -73.5093 793.984C-81.4079 787.184 -88.7902 780.248 -95.6763 773.338C-169.023 698.115 -173.844 618.058 -147.206 550.151C-118.026 475.839 -58.2519 402.511 -41.1214 310.548C-35.9252 282.7 -34.8459 253.814 -38.1919 224.365C-44.1665 169.755 -64.7179 113.875 -99.1417 63.1388C-152.011 -14.0946 -237.165 -78.6666 -331.257 -115.428" stroke="#FDCFA5" stroke-miterlimit="10"/>
<path d="M1945.21 1300.25C1840.39 1332.25 1725.72 1349.01 1611.94 1346.52C1545.21 1345.07 1478.59 1336.76 1416.4 1320.83C1375.74 1310.47 1337.21 1296.96 1301.31 1280.48C1188.89 1228.65 1104.8 1149.56 1036.98 1074.28C1005.38 1039.05 980.651 1002.89 937.718 974.579C900.356 949.677 852.464 933.207 799.839 922.7C727.944 908.544 646.725 905.175 572.096 907.066C530.772 908.124 490.817 910.237 451.873 912.24C369.461 916.495 293.377 922.071 215.979 918.088C102.56 912.667 -23.5887 883.009 -103.106 815.446C-111.25 808.63 -118.382 801.705 -125.226 794.468C-197.933 718.272 -195.911 633.32 -162.699 562.635C-126.143 485.095 -58.4586 410.203 -36.6692 316.823C-30.1747 288.545 -28.0235 259.053 -30.8326 229.295C-35.6931 173.745 -56.4263 117.346 -92.2875 66.1879C-147.313 -11.6778 -237.213 -76.0353 -337.676 -111.515" stroke="#FDCFA5" stroke-miterlimit="10"/>
<path d="M1930.14 1314.13C1825.73 1345.19 1711.49 1360.83 1598.36 1357.38C1532.21 1355.48 1466.41 1346.71 1404.47 1330.96C1364.32 1320.63 1325.79 1307.27 1290.1 1291.12C1177.59 1240.26 1092.02 1163.34 1026.81 1087.2C995.827 1051.17 972.521 1013.6 930.259 984.007C893.297 957.972 845.273 940.671 792.478 929.661C720.191 914.823 638.255 911.414 563.034 914.256C521.416 915.789 480.629 918.676 441.082 921.629C356.949 927.921 278.089 935.967 197.688 934.276C79.6487 932.205 -52.2345 904.847 -132.638 836.558C-140.779 829.74 -148.137 822.637 -154.73 815.411C-226.778 738.079 -218.183 648.377 -177.888 574.775C-133.732 494.179 -58.1445 417.722 -32.1754 322.734C-24.3833 294.025 -21.429 264.075 -23.4334 233.859C-27.2007 177.531 -48.0749 120.286 -85.1645 69.0447C-142.095 -9.44103 -236.985 -73.5976 -343.815 -107.795" stroke="#FDCFA5" stroke-miterlimit="10"/>
<path d="M1915.04 1328.2C1811.26 1358.48 1697.24 1372.66 1584.99 1368.45C1519.42 1366.08 1454.18 1357.01 1393 1341.29C1353.11 1330.97 1314.82 1317.79 1279.35 1301.97C1167.01 1252.08 1079.69 1177.34 1017.13 1100.16C987.265 1063.2 964.871 1024.36 923.011 993.629C886.43 966.624 838.542 948.342 785.309 936.976C712.878 921.471 630.226 918.022 554.166 921.802C512.006 923.797 470.884 927.485 430.506 931.213C344.653 939.542 263.267 950.074 179.617 950.664C57.2297 951.796 -80.4038 926.902 -161.692 857.887C-169.811 850.904 -177.166 843.799 -183.985 836.395C-255.146 758.101 -239.964 663.484 -192.857 587.112C-141.335 503.282 -57.6213 425.435 -27.4954 329C-18.1388 299.711 -14.3822 269.302 -15.8302 238.615C-18.5051 181.508 -39.5402 123.58 -78.0649 71.9165C-137.148 -7.20282 -236.776 -71.1448 -349.988 -103.896" stroke="#FDCFA5" stroke-miterlimit="10"/>
<path d="M1900.01 1342.09C1796.63 1371.43 1683.03 1384.49 1571.44 1379.32C1506.46 1376.33 1441.76 1367.13 1381.1 1351.43C1341.47 1341.12 1303.65 1328.28 1268.15 1312.79C1155.72 1263.86 1066.93 1191.14 1006.96 1113.26C977.954 1075.52 956.738 1035.24 915.528 1003.4C879.347 975.256 831.307 956.306 777.924 944.273C705.101 928.086 621.712 924.76 545.081 929.328C502.626 931.8 460.942 936.114 419.693 940.942C332.14 951.147 247.962 964.316 161.293 967.364C34.2916 971.85 -108.822 949.274 -190.995 879.533C-199.111 872.548 -206.692 865.264 -213.261 857.871C-283.763 778.44 -261.791 679.244 -208.104 599.925C-149.241 513.023 -57.6137 433.447 -22.838 335.592C-12.1857 305.871 -7.37911 275.018 -8.2712 243.859C-9.8342 185.81 -31.0508 127.362 -70.7621 75.2909C-131.997 -4.46131 -236.361 -68.1876 -355.931 -99.6534" stroke="#FDCFA5" stroke-miterlimit="10"/>
<path d="M1884.65 1356.17C1781.65 1384.71 1668.52 1396.33 1557.56 1390.38C1493.16 1386.92 1429.26 1377.43 1368.87 1361.74C1329.48 1351.6 1291.92 1338.78 1256.64 1323.62C1144.38 1275.66 1054.1 1205.13 996.52 1126.2C968.383 1087.51 948.305 1046.14 907.537 1012.83C871.756 983.557 823.584 963.774 769.784 951.223C696.57 934.354 612.714 931.001 535.017 936.332C492.022 939.267 450.004 944.383 408.153 950.164C319.11 962.585 231.935 978.054 142.269 983.398C10.6785 991.079 -138.177 970.971 -221.234 900.504C-229.595 893.503 -236.906 886.068 -243.473 878.672C-313.336 798.266 -284.538 694.162 -224.049 612.069C-157.623 522.268 -58.0875 440.96 -19.1409 341.495C-7.1938 311.342 -1.56606 279.867 -1.67499 248.412C-2.14699 189.583 -23.5244 130.452 -64.6689 77.958C-127.805 -2.41474 -237.148 -65.9387 -363.071 -96.1186" stroke="#FDCFA5" stroke-miterlimit="10"/>
<path d="M1869.6 1370.08C1707.71 1413.66 1519.95 1414.39 1357.2 1371.9C1194.45 1329.41 1058.93 1243.98 986.864 1139.18C959.599 1099.53 940.678 1056.9 900.312 1022.45C816.908 950.961 662.354 932.997 526.178 943.875C390.25 954.766 260.426 988.924 124.23 999.964C-11.7187 1011.02 -166.293 993.217 -250.232 922.023C-347.91 838.949 -312.499 717.469 -238.99 624.578C-165.213 531.537 -57.8167 448.821 -14.227 347.934C23.7961 259.856 8.17078 162.18 -57.1126 81.1731C-122.396 0.166158 -236.468 -63.142 -368.738 -92.0348" stroke="#FF7E07" stroke-miterlimit="10"/>
<path d="M1825.86 1375.19C1665.32 1417.41 1480.15 1416.97 1320.14 1373.92C1160.12 1330.88 1026.4 1246.1 956.814 1141.82C929.698 1101.16 912.749 1056.78 874.049 1021.24C795.534 949.109 646.563 929.62 515.142 937.482C383.968 945.358 257.242 975.78 122.96 984.636C-13.0934 993.726 -168.46 977.665 -255.004 908.059C-355.084 827.064 -326 705.936 -254.7 612.009C-183.401 518.082 -73.5915 434.919 -26.9111 336.716C13.407 251.786 -0.192122 157.888 -60.2662 79.5356C-120.34 1.18274 -227.444 -61.1631 -354.524 -90.6294" stroke="#FF7E07" stroke-miterlimit="10"/>
<path d="M1781.92 1380.13C1623 1420.84 1440.15 1419.37 1282.6 1375.92C1125.05 1332.47 993.407 1248.04 926.556 1144.29C899.609 1102.44 884.834 1056.66 847.799 1020.02C774.39 947.436 630.767 926.242 504.341 931.096C377.688 935.773 254.036 962.614 121.648 969.445C-14.4864 976.403 -170.928 962.4 -260.047 894.224C-362.788 815.463 -339.483 694.392 -270.924 599.729C-202.366 505.066 -90.1327 421.291 -40.1428 325.957C2.69132 244.358 -9.09278 153.909 -63.9673 78.2171C-119.089 2.51176 -218.99 -58.8558 -340.887 -88.8964" stroke="#FF7E07" stroke-miterlimit="10"/>
<path d="M1738.23 1385.26C1580.69 1424.43 1400.44 1421.79 1245.33 1378.09C1090.22 1334.39 960.935 1250.17 896.568 1146.93C869.791 1103.9 857.185 1056.71 821.586 1018.79C753.029 945.737 615.224 923.024 493.316 924.673C371.407 926.321 250.83 949.574 120.112 954.199C-15.8471 959.035 -173.597 947.082 -265.034 880.353C-370.404 803.668 -352.886 682.816 -287.067 587.414C-221.248 492.012 -106.377 407.8 -53.0482 315.012C-8.22007 236.888 -17.452 149.934 -67.3622 76.7304C-117.292 3.69043 -210.269 -56.5475 -326.968 -87.3272" stroke="#FF7E07" stroke-miterlimit="10"/>
<path d="M1694.25 1390.39C1538.31 1428.21 1360.17 1424.36 1207.79 1380.1C1055.42 1335.85 928.225 1251.98 866.318 1149.42C839.712 1105.2 829.251 1056.76 795.106 1017.4C731.374 944.033 599.175 919.458 482.026 917.908C364.878 916.359 247.375 936.015 118.312 938.594C-17.9782 941.442 -176.245 931.256 -270.501 866.113C-378.487 791.509 -366.764 671.04 -303.662 574.734C-240.313 478.441 -123.351 394.091 -66.695 303.854C-19.6139 229.061 -26.7924 145.581 -71.521 75.0483C-116.25 4.51528 -202.312 -54.5913 -313.818 -86.1118" stroke="#FFA14A" stroke-miterlimit="10"/>
<path d="M1650.63 1395.37C1496.08 1431.65 1320.52 1426.78 1170.87 1382.13C1021.21 1337.48 896.108 1253.96 836.659 1152.09C810.225 1106.68 801.677 1056.81 769.192 1016.34C710.275 942.662 583.674 916.222 471.261 911.63C358.848 907.039 244.212 922.752 117.033 923.458C-19.3131 924.162 -178.351 915.899 -275.168 852.36C-385.51 779.855 -380.041 659.581 -319.181 562.559C-258.567 465.524 -139.239 380.72 -79.022 293.053C-29.9426 221.584 -34.8464 141.763 -74.4038 73.9054C-113.961 6.04793 -193.102 -52.0888 -299.196 -84.175" stroke="#FFA14A" stroke-miterlimit="10"/>
<path d="M1606.68 1400.5C1453.77 1435.27 1280.56 1429.36 1133.4 1384.13C986.242 1338.91 863.721 1255.77 806.481 1154.57C780.22 1107.97 773.807 1056.84 743.018 1014.94C688.642 941.099 568.125 912.815 460.215 904.999C352.551 897.196 240.987 909.298 115.469 907.949C-20.9032 906.343 -180.74 900.334 -280.33 838.226C-393.261 767.812 -393.538 647.76 -335.39 549.831C-277.242 451.902 -156.095 366.944 -92.3297 281.85C-41.5261 213.863 -43.6294 137.407 -78.2726 72.217C-112.916 7.02698 -184.923 -49.9614 -285.838 -82.7916" stroke="#FFA14A" stroke-miterlimit="10"/>
<path d="M1562.93 1405.68C1411.33 1438.88 1240.61 1431.95 1095.84 1386.33C951.067 1340.71 831.08 1257.83 776.015 1157.34C749.913 1109.57 745.382 1057.19 716.248 1014.03C666.356 940.225 551.637 909.762 448.633 898.906C345.384 888.037 236.864 896.186 113.18 892.79C-23.3137 889.031 -184.24 884.939 -286.179 824.48C-401.509 756.202 -407.782 636.578 -352.306 537.786C-296.831 438.993 -173.576 354.099 -106.194 271.294C-53.6403 206.825 -53.2139 133.925 -82.7056 71.2841C-112.217 8.807 -177.124 -47.172 -273.193 -80.5852" stroke="#FFA14A" stroke-miterlimit="10"/>
<path d="M1518.9 1410.67C1368.82 1442.48 1200.35 1434.35 1058.2 1388.35C916.05 1342.35 798.339 1259.71 745.441 1159.95C719.497 1111 717.069 1057.55 689.382 1012.8C643.717 939.019 535.024 906.389 436.665 892.477C338.081 878.388 231.772 887.321 110.446 877.447C-25.5647 866.448 -187.961 869.371 -292.743 810.541C-410.475 744.407 -422.716 625.056 -369.679 525.584C-316.642 426.111 -191.723 340.932 -120.274 260.78C-65.9494 199.674 -62.9968 130.338 -87.3867 70.5808C-111.757 10.6596 -169.864 -43.9911 -260.835 -78.1369" stroke="#FFA14A" stroke-miterlimit="10"/>
<path d="M1475.13 1415.85C1326.35 1446.1 1160.1 1436.93 1020.59 1390.39C880.811 1344 765.619 1261.62 714.866 1162.74C689.079 1112.62 688.527 1057.92 662.489 1011.92C621.045 938.157 518.596 903.536 424.671 886.223C330.726 869.074 226.915 874.347 107.675 862.269C-28.4067 848.617 -191.713 853.969 -299.088 796.784C-419.462 732.783 -437.416 613.72 -387.06 513.554C-336.704 413.388 -209.901 328.101 -134.616 250.427C-78.7889 192.839 -72.8234 127.098 -92.3242 69.8858C-111.825 12.674 -162.858 -40.9618 -248.758 -75.6771" stroke="#FFA14A" stroke-miterlimit="10"/>
<path d="M1431.12 1421.02C1283.63 1449.7 1119.86 1439.5 982.713 1392.57C845.571 1345.64 732.876 1263.67 684.041 1165.51C658.656 1114.23 659.711 1058.43 635.606 1010.86C598.357 937.283 501.939 900.326 412.648 879.95C323.356 859.574 223.145 856.122 104.865 847.063C-32.4677 836.475 -195.516 838.703 -305.703 782.987C-428.469 721.136 -452.618 602.335 -404.694 501.488C-356.771 400.642 -228.578 315.22 -148.955 239.889C-91.8733 185.809 -82.88 123.502 -97.2735 69.0158C-111.667 14.5293 -155.88 -38.1042 -236.715 -73.3898" stroke="#FFA14A" stroke-miterlimit="10"/>
<path d="M1387.37 1426.04C1241.41 1453.17 1079.89 1441.76 945.091 1394.6C810.297 1347.44 700.135 1265.58 653.46 1168.14C628.231 1115.68 630.892 1058.79 608.715 1009.64C575.431 936.076 485.504 896.972 400.595 873.516C315.929 850.073 218.739 842.65 102.257 831.699C-35.1827 818.784 -199.097 823.116 -311.886 769.213C-437.018 709.35 -467.147 591.155 -421.877 489.451C-376.608 387.748 -246.803 302.37 -163.114 229.536C-104.76 178.803 -92.7824 120.264 -102.076 68.5059C-111.371 16.748 -148.794 -34.7177 -224.552 -70.7383" stroke="#FFA14A" stroke-miterlimit="10"/>
<path d="M1343.31 1431.24C1198.64 1456.96 1039.6 1444.35 907.445 1396.65C775.287 1348.94 667.642 1267.33 622.86 1170.78C598.034 1117.15 602.297 1059.16 581.783 1008.58C552.174 935.345 468.753 893.926 388.732 867.249C308.711 840.571 214.296 829.158 99.6159 816.314C-38.147 800.893 -202.69 807.508 -318.051 755.256C-445.559 697.547 -481.617 579.627 -438.756 477.076C-395.895 374.525 -265.222 289.149 -176.724 218.687C-117.612 171.442 -101.882 116.383 -106.329 67.342C-110.776 18.3006 -141.155 -32.1489 -211.858 -68.7421" stroke="#FFA14A" stroke-miterlimit="10"/>
<path d="M1299.59 1436.25C1156.45 1460.42 999.637 1446.77 869.843 1398.67C740.049 1350.57 635.158 1269.23 592.531 1173.41C567.881 1118.44 573.724 1059.51 555.134 1007.36C529.213 934.282 452.285 890.546 376.878 860.795C301.227 831.031 209.846 815.473 96.9421 800.898C-40.9222 783.146 -206.077 791.882 -324.496 741.257C-454.379 685.706 -496.357 568.066 -456.163 464.821C-415.97 361.576 -284.163 276.053 -191.127 208.119C-130.992 164.216 -112.045 112.945 -111.388 66.4728C-110.731 20.0006 -134.341 -29.2797 -200.001 -66.4454" stroke="#FFA14A" stroke-miterlimit="10"/>
<path d="M1255.58 1441.45C1113.74 1464.04 959.149 1449.34 831.963 1400.86C704.777 1352.38 602.413 1271.14 561.654 1176.36C537.405 1120.23 544.356 1060.17 528.155 1006.63C505.917 933.718 435.718 887.676 364.694 854.67C293.671 821.664 205.056 802.109 93.9279 785.801C-44.2595 765.538 -210.042 776.562 -331.023 727.593C-463.255 674.038 -511.425 556.995 -473.632 452.904C-435.838 348.814 -303.392 263.116 -205.582 197.725C-144.915 157.141 -122.247 109.524 -116.535 65.9521C-110.802 22.216 -127.654 -25.8942 -188.238 -63.9623" stroke="#FFA14A" stroke-miterlimit="10"/>
<path d="M1211.82 1446.65C1071.49 1467.85 919.142 1451.94 794.337 1402.9C669.533 1353.87 570.142 1273.08 531.044 1179C507.195 1121.7 515.477 1060.69 501.213 1005.4C482.388 932.807 418.907 884.455 352.504 848.205C286.102 811.954 200.251 788.397 90.8969 770.354C-47.6109 747.578 -213.996 760.728 -337.797 713.569C-472.391 662.177 -526.46 545.416 -491.083 440.644C-455.95 335.859 -322.847 249.823 -219.805 187.169C-158.345 149.755 -132.246 106.111 -121.447 65.113C-110.647 24.1154 -120.732 -22.9885 -176.286 -61.631" stroke="#FFA14A" stroke-miterlimit="10"/>
<path d="M1167.82 1451.67C1028.78 1471.29 878.899 1454.35 756.699 1404.93C634.499 1355.51 537.63 1274.82 500.415 1181.63C476.987 1123 486.353 1061.01 474.246 1004.16C458.849 931.716 402.076 881.052 340.268 841.718C278.461 802.384 195.409 774.491 87.8096 754.877C-50.751 729.433 -218.018 745.028 -344.367 699.529C-481.294 650.139 -541.27 533.825 -508.551 428.358C-475.812 322.726 -342.301 236.337 -234.282 176.409C-172.519 142.142 -142.264 102.514 -126.63 64.0796C-111.016 25.8096 -114.121 -20.1096 -164.39 -59.4789" stroke="#FFA14A" stroke-miterlimit="10"/>
<path d="M1124.1 1456.89C986.598 1474.94 838.931 1456.95 719.087 1407.14C599.242 1357.33 505.359 1276.92 469.8 1184.43C446.771 1124.64 457.238 1061.52 447.266 1003.27C435.29 930.97 385.457 878.005 328.236 835.584C271.035 792.999 190.982 761.109 84.9093 739.744C-53.7242 711.796 -221.851 729.673 -350.987 685.823C-490.265 638.602 -556.138 522.739 -526.032 416.248C-495.926 309.757 -361.987 222.852 -248.551 166.008C-186.242 134.906 -152.306 99.1072 -131.642 63.5809C-110.978 28.0547 -107.34 -16.8568 -152.596 -56.8019" stroke="#FFA14A" stroke-miterlimit="10"/>
<path d="M1080.37 1462.12C944.167 1478.59 798.961 1459.56 681.493 1409.19C564.025 1358.82 472.881 1278.69 439.18 1187.25C416.571 1126.12 427.855 1062.19 420.539 1002.22C411.716 930.226 368.811 874.958 316.191 829.281C263.57 783.605 186.309 747.372 82.0078 724.267C-56.9173 693.633 -225.672 713.974 -357.342 671.789C-498.941 626.575 -570.941 511.149 -543.241 403.976C-515.541 296.803 -381.629 209.022 -262.81 155.431C-200.425 127.303 -162.367 95.6938 -136.643 62.7483C-111.163 29.7897 -100.569 -13.9357 -140.82 -54.4579" stroke="#FFA14A" stroke-miterlimit="10"/>
<path d="M1036.38 1467.15C901.451 1482.21 758.744 1461.81 643.61 1411.21C528.719 1360.62 440.35 1280.44 408.282 1189.87C386.071 1127.57 398.209 1062.49 393.263 1001.13C387.607 929.272 351.862 871.71 303.59 822.762C255.318 773.814 181.068 733.41 78.5175 708.729C-60.4534 675.422 -229.812 698.063 -364.517 657.684C-508.43 614.479 -586.301 499.505 -561.004 391.65C-535.949 283.782 -402.046 194.962 -277.612 144.638C-214.889 119.337 -172.717 91.9203 -142.206 61.7097C-111.695 31.4991 -94.4018 -11.0527 -129.636 -52.3177" stroke="#FFA14A" stroke-miterlimit="10"/>
<path d="M992.687 1472.38C859.053 1485.85 718.559 1464.4 606.019 1413.42C493.499 1362.27 408.106 1282.38 377.667 1192.69C356.117 1129.06 368.602 1062.98 366.283 1000.07C363.545 928.332 334.946 868.474 291.24 816.429C247.533 764.384 176.309 719.64 75.5065 693.381C-63.4886 657.232 -233.73 682.494 -370.954 643.785C-517.175 602.591 -600.906 488.072 -578.25 379.522C-555.594 270.971 -421.906 180.767 -291.684 134.222C-228.625 111.751 -182.61 88.6827 -147.078 61.2226C-111.545 33.7624 -87.546 -7.78019 -117.792 -49.6239" stroke="#FFA14A" stroke-miterlimit="10"/>
<path d="M948.709 1477.59C816.613 1489.49 678.332 1466.99 568.404 1415.46C458.475 1363.93 375.812 1284.31 347.02 1195.33C325.868 1130.54 339.203 1063.3 339.245 998.992C339.418 927.381 317.934 865.39 278.804 810.079C239.674 754.768 171.472 705.681 72.1551 677.995C-66.88 639.167 -237.958 666.722 -377.956 629.836C-526.476 590.657 -616.073 476.758 -596.035 367.347C-575.996 257.935 -442.507 166.181 -306.533 123.583C-243.119 103.779 -193.27 85.0628 -152.727 60.3552C-112.426 35.6344 -81.4909 -4.88542 -106.758 -47.3089" stroke="#FFA14A" stroke-miterlimit="10"/>
<path d="M905.022 1482.65C774.466 1492.98 638.397 1469.43 530.816 1417.5C423.236 1365.57 343.803 1286.09 316.373 1198.14C295.881 1132.02 309.317 1063.75 312.461 997.923C315.542 926.435 301.178 862.142 266.597 803.727C232.016 745.313 166.588 691.865 69.019 662.597C-69.7905 620.936 -241.98 651.104 -384.481 615.892C-535.291 578.73 -630.721 465.288 -613.072 355.193C-595.404 244.934 -462.098 151.462 -320.425 113.144C-256.641 95.8446 -202.762 81.8283 -157.441 59.697C-112.12 37.5657 -74.3029 -1.60079 -94.8223 -44.7835" stroke="#FFA14A" stroke-miterlimit="10"/>
<path d="M861.069 1487.88C731.793 1496.79 598.2 1472.03 493.21 1419.72C388.219 1367.41 311.53 1288.03 285.723 1200.96C265.87 1133.67 279.669 1064.23 285.424 996.846C291.424 925.316 284.389 858.895 254.349 797.373C224.329 735.685 161.915 677.883 65.8524 647.02C-72.9676 602.51 -245.754 635.155 -391.006 601.771C-544.095 566.628 -645.583 453.631 -630.301 342.686C-615.02 231.742 -481.845 136.054 -334.753 102.171C-270.601 87.3783 -212.926 77.8871 -162.636 58.6776C-112.327 39.3028 -67.8473 1.14604 -83.4054 -42.619" stroke="#FFA14A" stroke-miterlimit="10"/>
<path d="M817.369 1493.12C689.631 1500.45 558.247 1474.64 455.618 1421.76C352.969 1369.06 279.24 1289.97 255.071 1203.61C235.876 1135 249.774 1064.53 258.357 995.771C267.252 924.365 267.289 855.802 241.819 790.839C216.329 726.041 156.923 663.882 62.362 631.422C-76.2087 583.909 -250.096 619.172 -398.095 587.619C-553.458 554.498 -660.771 442.126 -648.093 330.321C-635.416 218.515 -502.39 120.775 -349.685 91.6766C-285.166 79.3929 -223.721 74.5963 -168.433 57.9805C-113.145 41.3648 -62.035 4.38408 -72.6033 -40.2942" stroke="#FFA14A" stroke-miterlimit="10"/>
<path d="M773.412 1498.2C646.972 1503.94 517.797 1477.06 417.751 1423.8C317.705 1370.55 246.932 1291.75 224.139 1206.26C205.581 1136.48 219.617 1064.66 231.021 994.517C242.582 923.055 250.158 852.374 228.969 784.283C207.779 716.192 151.618 649.685 58.5403 615.792C-79.7953 565.438 -254.753 603.157 -405.245 573.451C-562.853 542.189 -675.972 430.444 -665.914 317.941C-655.855 205.438 -522.404 104.844 -364.365 80.6847C-299.222 70.7601 -234.017 70.6624 -174.005 56.7942C-113.993 42.9261 -56.0068 6.96928 -61.6344 -38.2931" stroke="#FFA14A" stroke-miterlimit="10"/>
<path d="M729.791 1503.42C604.869 1507.75 477.939 1479.49 380.21 1426C282.5 1372.35 214.939 1293.69 193.499 1209.23C175.595 1138.12 189.729 1065.27 204.191 993.762C218.652 922.258 233.269 849.43 216.593 778.222C199.916 707.014 147.011 635.99 55.1729 600.649C-82.908 547.286 -258.972 587.795 -412.173 559.759C-572.057 530.69 -690.932 419.244 -683.246 306.058C-675.559 192.872 -541.926 89.4078 -378.846 70.5101C-312.818 62.7946 -244.383 67.7041 -179.415 56.5991C-114.448 45.4941 -49.843 10.5487 -50.5406 -35.2984" stroke="#FFA14A" stroke-miterlimit="10"/>
<path d="M3811.81 506.538C3696.74 556.26 3574.85 600.266 3445.5 615.64C3316.42 630.867 3178.28 614.134 3083.65 553.297C2970.65 480.614 2929.25 354.121 2796.93 301.185C2711.26 266.948 2605.69 271.089 2505.95 270.833C2405.96 270.563 2297.93 262.241 2230.51 210.798C2109.67 118.551 2179.83 -63.6919 2046.72 -146.365C1958.83 -200.841 1825.17 -185.208 1709.06 -197.204C1562.2 -212.452 1430.83 -278.969 1361.04 -373.539C1291.25 -468.11 1284.57 -588.869 1342.97 -693.521" stroke="#FDCFA5" stroke-miterlimit="10"/>
<path d="M3796.46 520.311C3682.03 569.282 3560.35 612.023 3431.94 626.318C3354.48 635.036 3273.69 632.212 3201.19 615.378C3153.83 604.423 3110.01 587.323 3072.77 563.754C2959.94 492.014 2915.97 368.073 2787.15 313.669C2741.34 294.353 2690.43 285.646 2636.92 281.671C2591.62 278.294 2544.65 278.238 2498.51 277.576C2433.8 276.742 2365.16 273.263 2306.3 257.802C2273.71 249.254 2244.09 237.129 2219.62 219.92C2171.35 186.186 2150.3 139.771 2134.88 90.5696C2112.37 19.7234 2100.93 -57.1929 2038.73 -110.012C2032.17 -115.718 2024.79 -120.98 2016.89 -126.108C1929.92 -181.702 1802.41 -170.606 1693.49 -185.475C1586.82 -200.226 1490.4 -244.631 1421.1 -308.868C1401.08 -327.465 1383.52 -347.717 1368.4 -369.301C1341.38 -408.239 1323.42 -451.243 1314.65 -495.384C1301.29 -561.037 1308.07 -629.031 1336.62 -690.349" stroke="#FDCFA5" stroke-miterlimit="10"/>
<path d="M3781.37 534.28C3667.36 582.323 3546.13 623.81 3418.38 637.334C3341.25 645.586 3261.28 642.478 3189.31 625.662C3142.22 614.716 3098.62 597.944 3061.38 574.524C2948.7 503.889 2902.68 382.373 2777.08 326.648C2731.87 306.704 2682.43 296.445 2629.6 291.204C2584.71 286.709 2537.61 285.834 2491.28 284.836C2426.18 283.33 2357.06 279.823 2297.36 265.283C2264.47 257.202 2234.5 245.865 2208.95 229.401C2159.21 197.52 2135.08 153.679 2116.61 106.726C2089.68 39.181 2072.43 -35.4851 2009.34 -89.0299C2002.52 -94.7524 1995.42 -100.165 1987.52 -105.295C1901.2 -161.86 1780.34 -155.28 1678.65 -173.349C1579.16 -190.976 1490.77 -237.091 1426.43 -302.723C1407.73 -321.747 1390.99 -342.454 1376.68 -364.494C1350.78 -404.206 1332.65 -447.892 1322.42 -492.457C1307.14 -558.735 1308.86 -626.545 1330.97 -686.614" stroke="#FDCFA5" stroke-miterlimit="10"/>
<path d="M3766.3 548.084C3652.93 595.37 3531.91 635.586 3404.82 648.176C3328.3 655.813 3249.13 652.583 3177.68 635.786C3131.1 624.861 3087.75 608.257 3050.48 585.149C2937.72 515.451 2889.39 396.355 2766.99 339.472C2722.65 318.752 2674.41 307.088 2621.98 300.729C2577.5 295.115 2530.5 293.594 2483.77 291.924C2418.27 289.746 2348.43 286.199 2288.13 272.594C2254.69 264.968 2224.16 254.245 2197.97 238.877C2146.51 208.84 2119.78 167.764 2098.04 122.891C2066.45 58.4797 2043.36 -13.6069 1979.64 -68.0233C1972.83 -73.7484 1965.74 -79.3253 1957.87 -84.6191C1872.23 -142.313 1757.75 -140.267 1663.48 -161.202C1570.91 -181.721 1491.05 -229.518 1431.2 -296.731C1413.8 -316.183 1398.15 -337.492 1384.38 -359.839C1359.61 -400.485 1341.3 -444.688 1329.87 -489.664C1312.4 -556.576 1309.33 -624.186 1324.97 -682.839" stroke="#FFC087" stroke-miterlimit="10"/>
<path d="M3751.21 561.906C3638.25 608.257 3517.68 647.212 3391.48 659.041C3315.54 666.224 3236.93 662.697 3166.01 645.92C3119.7 635.004 3076.58 618.568 3039.52 595.949C2926.67 527.192 2876.29 410.539 2757.1 352.339C2713.35 330.99 2666.55 317.935 2614.82 310.146C2570.73 303.575 2523.61 301.071 2476.46 298.89C2410.56 296.039 2340.22 292.626 2278.84 279.771C2245.09 272.775 2214 262.505 2186.93 248.222C2133.75 220.032 2104.46 181.404 2079.39 139.1C2043.38 78.003 2014.49 8.1796 1949.62 -46.9711C1942.83 -52.8601 1935.5 -58.4525 1927.88 -63.7352C1843.13 -122.382 1734.78 -124.888 1647.7 -148.864C1562.29 -172.263 1490.7 -221.756 1435.57 -290.534C1419.51 -310.574 1404.9 -332.162 1391.7 -354.976C1368.03 -396.393 1349.58 -441.436 1336.67 -486.671C1317.03 -554.214 1309.41 -621.606 1318.36 -679.013" stroke="#F29137" stroke-miterlimit="10"/>
<path d="M3736.15 575.909C3623.57 621.483 3503.44 659.174 3377.9 670.065C3302.54 676.793 3224.77 672.821 3154.09 656.213C3108.04 645.307 3065.17 629.04 3028.32 606.749C2915.63 538.951 2862.7 424.721 2746.94 365.38C2703.8 343.243 2658.45 328.796 2607.13 319.886C2563.43 312.196 2516.18 308.87 2468.83 306.352C2402.79 302.841 2331.47 299.374 2269.49 287.458C2235.18 280.918 2203.76 271.439 2176.07 258.094C2121.17 231.753 2089.05 195.726 2060.95 155.684C2020.53 97.7464 1985.57 30.3396 1920.06 -25.5169C1913.02 -31.4212 1905.96 -37.1639 1898.36 -42.61C1814.25 -102.22 1712.3 -109.431 1632.62 -136.275C1554.14 -162.731 1491.03 -213.743 1440.36 -283.937C1425.61 -304.401 1412.08 -326.59 1399.42 -349.709C1376.86 -391.897 1358.24 -437.615 1344.12 -483.095C1322.53 -551.092 1309.88 -618.451 1312.4 -674.594" stroke="#F29137" stroke-miterlimit="10"/>
<path d="M3721.02 589.732C3609.07 634.543 3489.17 670.795 3364.25 680.91C3289.48 687.183 3212.27 682.912 3142.36 666.339C3096.82 655.456 3054.19 639.358 3017.31 617.382C2904.54 550.529 2849.55 438.75 2736.98 378.253C2694.45 355.326 2650.54 339.485 2599.62 329.455C2556.31 320.805 2509.2 316.509 2461.42 313.479C2394.98 309.294 2323.19 305.8 2260.38 294.649C2225.77 288.577 2193.77 279.716 2165.21 267.458C2108.83 242.981 2073.64 209.542 2042.5 171.764C1997.42 117.135 1956.91 52.0109 1890.5 -4.5658C1883.46 -10.4723 1876.16 -16.2304 1868.58 -21.8402C1785.14 -82.5773 1689.55 -94.3336 1617.04 -124.224C1545.72 -153.564 1490.64 -206.447 1444.92 -278.031C1431.48 -298.923 1418.76 -321.565 1406.91 -345.138C1385.47 -388.258 1366.67 -434.492 1351.1 -480.391C1327.33 -549.018 1309.9 -616.17 1305.98 -671.049" stroke="#F29137" stroke-miterlimit="10"/>
<path d="M3705.65 603.727C3594.1 647.599 3474.65 682.586 3350.62 691.937C3276.45 697.593 3200.03 693.2 3130.39 676.634C3085.11 665.76 3042.73 649.831 3006.05 628.346C2893.41 562.613 2836.17 452.948 2727.03 391.308C2685.12 367.591 2642.62 350.517 2592.4 339.054C2549.5 329.283 2502.23 324.325 2454.28 320.797C2387.44 315.937 2314.9 312.564 2251.51 302.191C2216.36 296.576 2183.77 288.494 2154.62 277.013C2096.52 254.388 2058.73 223.728 2024.33 188.04C1974.85 136.574 1928.53 73.882 1860.97 16.5709C1853.96 10.5005 1846.66 4.74023 1839.08 -0.871604C1756.28 -62.5752 1667.08 -79.0429 1601.97 -111.807C1537.57 -144.209 1490.97 -198.615 1449.72 -271.78C1437.61 -293.26 1425.93 -316.181 1414.67 -340.383C1394.33 -384.275 1375.64 -431.335 1358.59 -477.494C1332.9 -546.739 1310.45 -613.857 1300.08 -667.311" stroke="#F29137" stroke-miterlimit="10"/>
<path d="M3690.57 617.555C3579.41 660.649 3460.4 694.368 3337.02 702.779C3263.18 707.966 3187.57 703.289 3118.7 686.757C3073.66 676.055 3031.79 660.147 2994.83 638.965C2882.1 574.18 2822.83 466.811 2716.85 404.177C2675.53 379.831 2634.24 361.187 2584.68 348.615C2542.15 337.883 2494.77 331.941 2446.4 327.899C2379.16 322.365 2306.14 318.965 2241.65 309.507C2206.2 304.362 2173.04 296.898 2143.01 286.505C2083.19 265.734 2042.58 237.681 2005.14 204.261C1951 156.111 1898.89 95.6937 1830.69 37.6762C1823.68 31.6037 1816.4 25.6797 1808.85 19.9041C1726.96 -42.9131 1643.63 -64.1218 1586.15 -99.5863C1528.42 -135.064 1490.54 -190.979 1453.73 -265.562C1442.93 -287.468 1432.34 -310.991 1421.61 -335.499C1402.38 -380.162 1383.52 -427.899 1365.03 -474.477C1337.16 -544.35 1309.92 -611.259 1293.13 -663.445" stroke="#F29137" stroke-miterlimit="10"/>
<path d="M3675.46 631.413C3564.95 673.58 3445.89 706.005 3323.41 713.652C3250.15 718.382 3175.09 713.406 3106.74 696.896C3062.22 686.217 3020.31 670.627 2983.6 649.612C2870.79 585.775 2809.46 480.862 2706.69 416.907C2665.97 391.77 2626.13 371.729 2576.99 357.872C2534.87 346.017 2487.6 339.263 2438.8 334.709C2371.17 328.499 2297.68 325.073 2232.34 316.542C2196.34 311.855 2162.59 305.17 2132.2 295.732C2070.66 276.816 2027.23 251.371 1986.77 220.22C1928.23 175.238 1870.32 117.257 1801.23 58.5181C1793.97 52.4301 1786.71 46.3422 1779.41 40.5778C1698.16 -23.2069 1621.24 -49.296 1570.88 -87.4899C1520.08 -126.196 1490.66 -183.636 1458.55 -259.626C1449.06 -281.959 1439.27 -305.938 1429.36 -330.9C1411.23 -376.336 1392.21 -424.751 1372.52 -471.737C1342.48 -542.241 1310.46 -608.942 1287.25 -659.861" stroke="#F29137" stroke-miterlimit="10"/>
<path d="M3660.39 645.412C3550.26 686.798 3431.64 717.954 3310.06 724.673C3237.4 728.785 3163.16 723.524 3095.05 707.184C3050.79 696.514 3009.13 681.095 2972.61 660.572C2859.96 597.698 2796.6 495.084 2696.73 430.121C2656.88 404.206 2618.22 382.755 2569.74 367.786C2528.02 354.808 2480.6 347.392 2431.63 342.337C2363.6 335.452 2289.38 331.985 2223.44 324.397C2187.14 320.181 2152.8 314.277 2121.55 305.767C2058.3 288.708 2012.29 265.887 1968.55 236.995C1905.36 195.334 1841.66 139.631 1771.65 80.3337C1764.42 74.0818 1757.16 67.9918 1749.64 62.0503C1669.05 -2.86233 1598.25 -33.686 1555.52 -74.7456C1511.63 -116.519 1490.68 -175.483 1463.03 -253.055C1454.87 -275.977 1446.14 -300.396 1436.76 -325.664C1419.75 -372.034 1400.57 -421.127 1379.41 -468.37C1347.45 -539.49 1310.4 -605.993 1280.77 -655.643" stroke="#FDCFA5" stroke-miterlimit="10"/>
<path d="M3645.31 659.259C3535.59 699.703 3417.41 729.589 3296.47 735.529C3224.39 739.184 3150.7 733.624 3083.37 717.319C3039.37 706.659 2998.19 691.422 2961.64 671.216C2848.91 609.292 2783.54 508.816 2686.81 443.018C2647.57 416.311 2610.35 393.461 2562.29 377.205C2520.95 363.264 2473.42 354.861 2424.27 349.306C2356.1 341.758 2281.13 338.413 2214.37 331.593C2177.52 327.835 2142.87 322.564 2110.74 315.145C2045.77 299.943 1996.95 279.735 1950.18 253.116C1882.35 214.615 1813.09 161.529 1742.2 101.348C1734.97 95.0938 1727.47 88.9884 1720.21 82.8962C1640.27 17.0156 1575.87 -18.8574 1540.24 -62.488C1503.55 -107.642 1490.78 -167.985 1467.8 -246.803C1460.94 -270.153 1453.27 -295.014 1444.46 -320.75C1428.55 -367.893 1409.21 -417.665 1386.85 -465.315C1352.72 -537.066 1310.89 -603.359 1274.85 -651.739" stroke="#FDCFA5" stroke-miterlimit="10"/>
<path d="M3630.2 673.279C3521.11 712.954 3403.13 741.557 3282.84 746.554C3211.34 749.751 3138.46 743.907 3071.4 727.609C3027.66 716.959 2986.72 701.893 2950.39 682.018C2837.79 621.22 2770.18 522.871 2676.62 455.915C2637.99 428.415 2602.2 404.166 2554.55 386.784C2513.61 371.718 2466.19 362.503 2416.36 356.583C2347.78 348.358 2272.1 344.973 2204.48 339.083C2167.09 335.783 2131.85 331.294 2099.11 324.818C2032.17 311.463 1980.79 293.883 1930.99 269.539C1858.51 234.363 1783.48 183.56 1711.95 122.67C1704.47 116.401 1697.23 110.145 1690 103.888C1610.95 37.0533 1552.96 -3.87204 1524.41 -50.0752C1494.64 -98.4638 1490.31 -160.171 1471.78 -240.573C1466.25 -264.513 1459.39 -289.828 1451.37 -315.858C1436.55 -363.774 1417.05 -414.224 1393.25 -462.294C1356.95 -534.676 1310.35 -600.758 1267.9 -647.866" stroke="#FDCFA5" stroke-miterlimit="10"/>
<path d="M3614.88 687.138C3506.2 725.871 3388.67 753.201 3269.26 757.431C3198.36 760.009 3126.02 754.027 3059.72 737.765C3016.49 727.138 2975.8 712.242 2939.42 692.846C2826.74 633 2757.35 536.967 2666.7 468.999C2628.69 440.545 2594.3 415.219 2547.34 396.4C2506.81 380.208 2459.25 370.166 2409.24 363.745C2340.27 354.843 2264.11 351.431 2195.65 346.472C2157.96 343.644 2122.15 339.776 2088.8 334.244C2020.14 322.912 1965.96 307.785 1913.14 285.718C1836.28 253.721 1755.46 205.363 1682.79 143.738C1675.33 137.304 1668.1 131.045 1660.87 124.787C1582.48 56.821 1530.87 11.0012 1509.66 -37.7636C1487.07 -89.5382 1490.91 -152.626 1476.82 -234.451C1472.6 -258.819 1466.79 -284.577 1459.33 -311.075C1445.64 -359.928 1425.97 -411.057 1400.93 -459.211C1362.71 -532.211 1311.09 -598.095 1262.22 -643.769" stroke="#FFD3BD" stroke-miterlimit="10"/>
<path d="M3599.81 701.011C3491.5 738.96 3374.44 764.856 3255.66 768.304C3185.1 770.41 3113.59 763.981 3047.78 747.902C3004.81 737.286 2964.36 722.561 2927.95 703.482C2815.43 644.603 2744.04 550.715 2656.27 481.898C2619.12 452.663 2585.91 425.923 2539.35 405.976C2499.2 388.82 2451.52 377.951 2401.35 370.866C2331.99 361.288 2255.08 357.997 2186.05 353.821C2147.81 351.453 2111.41 348.367 2077.46 343.78C2007.07 334.31 1950.08 321.803 1894.23 302.175C1812.72 273.509 1726.37 227.45 1652.81 165.103C1645.36 158.667 1637.9 152.231 1630.94 145.822C1553.19 76.8876 1508.23 26.0216 1493.87 -25.4946C1478.44 -80.4947 1490.46 -144.962 1481.05 -228.198C1478.12 -252.994 1473.4 -279.356 1466.47 -306.161C1453.88 -355.788 1434.05 -407.596 1407.57 -456.17C1367.18 -529.799 1310.8 -595.472 1255.52 -639.872" stroke="#FFD3BD" stroke-miterlimit="10"/>
<path d="M3584.7 715.033C3477.05 752.051 3360.16 776.822 3242.04 779.326C3172.05 780.974 3101.35 774.259 3035.83 758.026C2993.13 747.419 2952.91 732.865 2916.72 714.118C2804.11 656.192 2730.72 564.449 2646.1 494.632C2609.56 464.603 2577.54 436.448 2531.64 415.386C2491.89 397.102 2444.31 385.419 2393.71 377.982C2323.95 367.726 2246.57 364.408 2176.69 361.164C2138.14 359.431 2101.17 356.967 2066.36 353.311C1994.27 345.706 1934.71 335.831 1875.59 318.471C1789.44 293.137 1697.33 249.366 1623.13 186.309C1615.43 179.858 1608.24 173.271 1601.03 166.846C1524.2 96.7926 1485.61 41.0253 1478.32 -13.0694C1470.32 -71.4468 1490.26 -137.309 1485.27 -221.97C1483.68 -247.358 1479.98 -274 1473.64 -301.436C1462.16 -352 1442.15 -404.327 1414.47 -453.308C1371.92 -527.569 1310.78 -593.03 1248.85 -636.168" stroke="#FDCFA5" stroke-miterlimit="10"/>
<path d="M3569.63 728.903C3462.36 765.137 3345.94 788.472 3228.45 790.194C3159.04 791.383 3088.9 784.368 3024.15 768.17C2981.95 757.587 2941.98 743.203 2905.74 724.937C2793.29 667.978 2717.9 578.381 2636.16 507.714C2600.48 476.903 2569.65 447.332 2524.41 424.992C2485.06 405.579 2437.36 393.068 2386.58 385.129C2316.43 374.195 2238.33 370.837 2167.62 368.364C2128.52 367.091 2091.22 365.424 2055.55 362.701C1981.73 357.122 1919.39 349.708 1857.25 334.63C1766.49 312.469 1668.85 271.162 1593.5 207.368C1585.8 200.915 1578.37 194.312 1571.44 187.736C1495.24 116.712 1463.51 56.0664 1462.82 -0.797687C1462.22 -62.3927 1490.33 -129.638 1489.78 -215.888C1489.49 -241.705 1486.87 -268.952 1481.07 -296.696C1470.69 -348.036 1450.78 -401.191 1421.64 -450.431C1377.18 -525.311 1311.02 -590.574 1242.71 -632.436" stroke="#FDCFA5" stroke-miterlimit="10"/>
<path d="M3554.53 742.774C3447.66 778.062 3331.67 800.283 3215.08 801.073C3146.27 801.641 3076.92 794.502 3012.43 778.312C2970.48 767.902 2930.75 753.689 2894.75 735.592C2782.2 679.75 2705.08 592.153 2626.23 520.472C2591.18 488.704 2561.76 457.89 2516.93 434.421C2477.98 413.879 2430.12 400.702 2378.95 392.085C2308.65 380.485 2229.83 377.087 2158.28 375.548C2118.88 374.748 2080.83 373.204 2044.72 372.09C1969.05 369.514 1904.04 363.587 1838.89 350.792C1743.74 331.983 1640.09 292.953 1564.11 228.449C1556.43 221.831 1549 215.227 1542.09 208.486C1466.55 136.329 1441.44 70.7878 1447.82 11.3414C1454.61 -53.4735 1490.64 -122.279 1494.51 -209.793C1495.76 -236.026 1493.95 -263.73 1488.7 -291.944C1479.42 -344.06 1459.35 -397.896 1428.77 -447.557C1382.15 -523.07 1311.23 -588.119 1236.53 -628.705" stroke="#FDCFA5" stroke-miterlimit="10"/>
<path d="M3539.45 756.812C3433.22 791.328 3317.44 812.098 3201.49 812.104C3133.26 812.213 3064.48 804.612 3000.75 788.619C2959.05 778.218 2919.56 764.177 2883.76 746.574C2771.12 691.688 2692.51 606.267 2616.29 533.72C2582.09 501.17 2553.85 468.938 2509.45 444.175C2470.88 422.666 2423.16 408.51 2371.55 399.54C2300.85 387.26 2221.29 383.985 2149.17 383.231C2109.23 382.892 2070.78 382.633 2033.9 381.804C1956.64 380.122 1888.69 377.957 1820.54 367.285C1720.76 351.816 1611.61 315.092 1534.74 249.864C1526.81 243.23 1519.66 236.474 1512.75 229.731C1437.85 156.602 1419.6 86.1754 1432.83 23.8064C1447.01 -44.2311 1490.95 -114.435 1499.25 -203.541C1501.83 -230.366 1500.82 -258.526 1496.36 -287.035C1488.2 -340.09 1467.95 -394.446 1436.17 -444.515C1387.37 -520.498 1311.97 -585.484 1230.63 -624.805" stroke="#FDCFA5" stroke-miterlimit="10"/>
<path d="M3524.11 770.702C3418.28 804.27 3302.93 823.924 3187.63 822.984C3119.98 822.633 3051.76 814.732 2988.54 798.761C2947.36 788.384 2908.11 774.514 2872.28 757.23C2759.8 703.315 2679.19 620.046 2605.84 546.647C2572.52 513.151 2545.45 479.663 2501.69 453.781C2463.52 431.142 2415.67 416.157 2363.88 406.684C2292.79 393.725 2212.77 390.423 2139.8 390.604C2099.56 390.739 2060.28 391.252 2022.79 391.371C1943.81 391.721 1873.08 392.022 1801.92 383.637C1697.52 371.348 1582.84 337.257 1504.85 271.129C1496.93 264.493 1489.54 257.559 1482.65 250.652C1408.65 176.564 1397 101.236 1416.81 36.0925C1438.63 -35.1556 1490.49 -106.921 1503.21 -197.455C1507.08 -224.71 1507.13 -253.314 1503.23 -282.293C1496.16 -336.125 1475.77 -391.324 1442.53 -441.652C1391.82 -518.253 1311.42 -583.039 1223.7 -621.081" stroke="#FDCFA5" stroke-miterlimit="10"/>
<path d="M3509.03 784.737C3403.59 817.519 3288.7 835.733 3174.29 834.022C3106.98 833.035 3039.8 825.022 2976.85 809.06C2935.92 798.693 2896.92 784.995 2861.06 768.031C2748.49 715.073 2666.38 633.984 2595.68 559.557C2563.22 525.278 2537.32 490.37 2493.99 463.194C2456.23 439.424 2408.24 423.609 2356.26 413.794C2284.76 400.318 2204.03 396.813 2130.47 397.944C2089.69 398.54 2050.07 399.853 2011.73 400.907C1931.04 403.128 1857.76 406.072 1783.35 399.962C1674.57 391.031 1553.89 359.224 1475.26 292.384C1467.37 285.584 1459.98 278.648 1453.1 271.738C1379.75 196.516 1374.93 116.459 1401.57 48.5514C1430.75 -25.7606 1490.52 -99.0886 1507.65 -191.052C1512.85 -218.9 1513.93 -247.785 1510.58 -277.235C1504.61 -331.844 1484.06 -387.725 1449.63 -438.461C1396.76 -515.694 1311.61 -580.266 1217.52 -617.027" stroke="#FDCFA5" stroke-miterlimit="10"/>
<path d="M3493.98 798.647C3389.16 830.655 3274.49 847.414 3160.71 844.918C3093.99 843.47 3027.36 835.157 2965.17 819.231C2924.51 808.874 2885.99 795.36 2850.08 778.878C2737.66 727.055 2653.58 647.96 2585.75 572.68C2554.16 537.454 2529.42 501.287 2486.49 472.979C2449.13 448.077 2401.24 431.607 2348.61 421.1C2276.72 406.944 2195.5 403.575 2120.87 405.466C2079.55 406.524 2039.59 408.637 2000.65 410.64C1918.23 414.895 1842.15 420.471 1764.75 416.489C1651.33 411.068 1525.18 381.41 1445.67 313.846C1437.52 307.03 1430.39 300.105 1423.55 292.868C1350.84 216.673 1352.86 131.721 1386.07 61.0353C1422.63 -16.505 1490.31 -91.3964 1512.1 -184.777C1518.6 -213.055 1520.75 -242.547 1517.94 -272.305C1513.08 -327.854 1492.35 -384.254 1456.49 -435.412C1401.46 -513.277 1311.56 -577.635 1211.1 -613.115" stroke="#FDCFA5" stroke-miterlimit="10"/>
<path d="M3478.91 812.53C3374.5 843.588 3260.26 859.229 3147.13 855.785C3080.98 853.877 3015.18 845.114 2953.24 829.359C2913.09 819.025 2874.56 805.67 2838.87 789.521C2726.37 738.657 2640.79 661.745 2575.58 585.598C2544.6 549.574 2521.29 511.999 2479.03 482.407C2442.07 456.372 2394.05 439.072 2341.25 428.061C2268.96 413.224 2187.03 409.815 2111.81 412.656C2070.19 414.19 2029.4 417.076 1989.86 420.03C1905.72 426.321 1826.86 434.367 1746.46 432.677C1628.42 430.606 1496.54 403.248 1416.14 334.958C1407.99 328.14 1400.64 321.037 1394.04 313.811C1322 236.479 1330.59 146.778 1370.89 73.1751C1415.04 -7.42061 1490.63 -83.8775 1516.6 -178.866C1524.39 -207.575 1527.34 -237.525 1525.34 -267.741C1521.57 -324.069 1500.7 -381.314 1463.61 -432.555C1406.68 -511.041 1311.79 -575.197 1204.96 -609.394" stroke="#FDCFA5" stroke-miterlimit="10"/>
<path d="M3463.81 826.596C3360.03 856.88 3246.01 871.065 3133.76 866.847C3068.19 864.478 3002.95 855.415 2941.77 839.694C2901.88 829.371 2863.59 816.188 2828.13 800.373C2715.78 750.481 2628.47 675.741 2565.9 598.563C2536.04 561.605 2513.64 522.756 2471.78 492.03C2435.2 465.024 2387.32 446.743 2334.08 435.377C2261.65 419.872 2179 416.423 2102.94 420.202C2060.78 422.198 2019.66 425.886 1979.28 429.614C1893.43 437.942 1812.04 448.475 1728.39 449.064C1606 450.196 1468.37 425.303 1387.08 356.288C1378.96 349.305 1371.61 342.199 1364.79 334.795C1293.63 256.501 1308.81 161.885 1355.92 85.512C1407.44 1.68269 1491.15 -76.1647 1521.28 -172.599C1530.63 -201.889 1534.39 -232.297 1532.94 -262.985C1530.27 -320.092 1509.23 -378.02 1470.71 -429.683C1411.63 -508.802 1312 -572.744 1198.79 -605.495" stroke="#FDCFA5" stroke-miterlimit="10"/>
<path d="M3448.78 840.494C3345.4 869.826 3231.8 882.891 3120.21 877.725C3055.24 874.731 2990.53 865.53 2929.87 849.831C2890.24 839.519 2852.42 826.683 2816.92 811.189C2704.5 762.258 2615.71 689.543 2555.74 611.66C2526.73 573.916 2505.51 533.644 2464.3 501.796C2428.12 473.657 2380.08 454.706 2326.7 442.673C2253.87 426.487 2170.49 423.16 2093.85 427.728C2051.4 430.2 2009.72 434.514 1968.47 439.342C1880.91 449.547 1796.74 462.717 1710.07 465.764C1583.06 470.251 1439.95 447.674 1357.78 377.933C1349.66 370.948 1342.08 363.664 1335.51 356.271C1265.01 276.841 1286.98 177.645 1340.67 98.3253C1399.53 11.4239 1491.16 -68.153 1525.94 -166.007C1536.59 -195.728 1541.39 -226.582 1540.5 -257.741C1538.94 -315.789 1517.72 -374.237 1478.01 -426.309C1416.78 -506.061 1312.41 -569.787 1192.84 -601.253" stroke="#FDCFA5" stroke-miterlimit="10"/>
<path d="M3433.42 854.567C3330.42 883.11 3217.29 894.73 3106.33 888.776C3041.94 885.32 2978.04 875.831 2917.64 860.142C2878.25 850.002 2840.69 837.176 2805.41 822.016C2693.15 774.06 2602.87 703.532 2545.29 624.604C2517.16 585.913 2497.08 544.541 2456.31 511.232C2420.53 481.958 2372.36 462.174 2318.56 449.623C2245.34 432.755 2161.49 429.402 2083.79 434.733C2040.8 437.667 1998.78 442.784 1956.93 448.564C1867.88 460.985 1780.71 476.455 1691.04 481.799C1559.45 489.48 1410.6 469.371 1327.54 398.904C1319.18 391.904 1311.87 384.468 1305.3 377.072C1235.44 296.666 1264.24 192.562 1324.72 110.469C1391.15 20.6684 1490.69 -60.6399 1529.63 -160.105C1541.58 -190.258 1547.21 -221.733 1547.1 -253.188C1546.63 -312.016 1525.25 -371.148 1484.1 -423.642C1420.97 -504.014 1311.63 -567.538 1185.7 -597.718" stroke="#FDCFA5" stroke-miterlimit="10"/>
<path d="M3418.37 868.477C3256.48 912.056 3068.72 912.791 2905.97 870.301C2743.23 827.811 2607.71 742.378 2535.64 637.576C2508.37 597.935 2489.45 555.3 2449.08 520.854C2365.68 449.361 2211.13 431.397 2074.95 442.275C1939.02 453.166 1809.2 487.324 1673 498.365C1537.05 509.418 1382.48 491.617 1298.54 420.423C1200.86 337.349 1236.27 215.869 1309.78 122.978C1383.56 29.9373 1490.96 -52.7782 1534.55 -153.666C1572.57 -241.744 1556.94 -339.42 1491.66 -420.427C1426.38 -501.433 1312.31 -564.742 1180.03 -593.634" stroke="#FF7E07" stroke-miterlimit="10"/>
<path d="M3374.64 873.59C3214.1 915.808 3028.92 915.369 2868.91 872.322C2708.89 829.275 2575.17 744.503 2505.59 640.216C2478.47 599.556 2461.52 555.178 2422.82 519.637C2344.31 447.51 2195.34 428.02 2063.92 435.883C1932.74 443.758 1806.02 474.18 1671.73 483.037C1535.68 492.126 1380.31 476.066 1293.77 406.46C1193.69 325.464 1222.77 204.336 1294.07 110.41C1365.37 16.4829 1475.18 -66.6806 1521.86 -164.883C1562.18 -249.814 1548.58 -343.711 1488.51 -422.064C1428.43 -500.417 1321.33 -562.763 1194.25 -592.229" stroke="#FF7E07" stroke-miterlimit="10"/>
<path d="M3330.7 878.534C3171.77 919.239 2988.93 917.772 2831.37 874.319C2673.82 830.866 2542.18 746.444 2475.33 642.687C2448.38 600.845 2433.61 555.06 2396.57 518.421C2323.16 445.837 2179.54 424.643 2053.11 429.496C1926.46 434.173 1802.81 461.014 1670.42 467.845C1534.29 474.803 1377.85 460.801 1288.73 392.625C1185.99 313.864 1209.29 192.793 1277.85 98.1293C1346.41 3.46603 1458.64 -80.3085 1508.63 -175.643C1551.46 -257.241 1539.68 -347.69 1484.81 -423.383C1429.68 -499.088 1329.78 -560.455 1207.89 -590.496" stroke="#FF7E07" stroke-miterlimit="10"/>
<path d="M3287.01 883.658C3129.46 922.834 2949.21 920.188 2794.1 876.49C2638.99 832.792 2509.71 748.572 2445.34 645.333C2418.56 602.305 2405.96 555.109 2370.36 517.194C2301.8 444.137 2164 421.424 2042.09 423.073C1920.18 424.722 1799.6 447.974 1668.89 452.6C1532.93 457.436 1375.18 445.483 1283.74 378.753C1178.37 302.068 1195.89 181.216 1261.71 85.8139C1327.53 -9.58806 1442.4 -93.7995 1495.72 -186.587C1540.55 -264.711 1531.32 -351.666 1481.41 -424.869C1431.48 -497.909 1338.5 -558.147 1221.81 -588.927" stroke="#FF7E07" stroke-miterlimit="10"/>
<path d="M3243.02 888.791C3087.08 926.613 2908.94 922.759 2756.57 878.503C2604.2 834.246 2477 750.378 2415.09 647.82C2388.49 603.604 2378.02 555.159 2343.88 515.801C2280.15 442.433 2147.95 417.858 2030.8 416.309C1913.65 414.759 1796.15 434.416 1667.09 436.995C1530.8 439.842 1372.53 429.656 1278.27 364.513C1170.29 289.909 1182.01 169.44 1245.11 73.1342C1308.46 -23.1585 1425.42 -107.508 1482.08 -197.745C1529.16 -272.538 1521.98 -356.018 1477.25 -426.551C1432.52 -497.084 1346.46 -556.191 1234.96 -587.711" stroke="#FFA14A" stroke-miterlimit="10"/>
<path d="M3199.4 893.767C3044.85 930.054 2869.3 925.181 2719.64 880.529C2569.99 835.877 2444.88 752.362 2385.43 650.487C2359 605.081 2350.45 555.205 2317.96 514.743C2259.05 441.063 2132.45 414.622 2020.03 410.031C1907.62 405.44 1792.98 421.153 1665.81 421.858C1529.46 422.563 1370.42 414.299 1273.61 350.76C1163.26 278.255 1168.73 157.981 1229.59 60.9594C1290.21 -36.0756 1409.53 -120.879 1469.75 -208.547C1518.83 -280.016 1513.93 -359.837 1474.37 -427.694C1434.81 -495.552 1355.67 -553.688 1249.58 -585.775" stroke="#FFA14A" stroke-miterlimit="10"/>
<path d="M3155.45 898.902C3002.55 933.666 2829.34 927.758 2682.18 882.533C2535.02 837.308 2412.49 754.174 2355.25 652.97C2328.99 606.371 2322.58 555.239 2291.79 513.342C2237.42 439.5 2116.9 411.215 2008.99 403.399C1901.32 395.596 1789.76 407.698 1664.24 406.349C1527.87 404.743 1368.03 398.735 1268.44 336.627C1155.51 266.212 1155.24 146.161 1213.38 48.2314C1271.53 -49.6977 1392.68 -134.655 1456.44 -219.749C1507.25 -287.737 1505.14 -364.193 1470.5 -429.383C1435.86 -494.573 1363.85 -551.561 1262.93 -584.391" stroke="#FFA14A" stroke-miterlimit="10"/>
<path d="M3111.7 904.079C2960.1 937.283 2789.38 930.351 2644.61 884.732C2499.84 839.114 2379.85 756.23 2324.79 655.743C2298.69 607.969 2294.15 555.588 2265.02 512.435C2215.13 438.625 2100.41 408.162 1997.41 397.307C1894.16 386.438 1785.64 394.587 1661.95 391.191C1525.46 387.431 1364.53 383.339 1262.59 322.88C1147.26 254.603 1140.99 134.979 1196.47 36.1861C1251.94 -62.6065 1375.2 -147.501 1442.58 -230.305C1495.13 -294.774 1495.56 -367.674 1466.07 -430.315C1436.56 -492.793 1371.65 -548.772 1275.58 -582.185" stroke="#FFA14A" stroke-miterlimit="10"/>
<path d="M3067.68 909.066C2917.6 940.884 2749.13 932.749 2606.98 886.752C2464.82 840.754 2347.11 758.114 2294.21 658.35C2268.27 609.404 2265.84 555.953 2238.16 511.204C2192.49 437.419 2083.8 404.789 1985.44 390.877C1886.85 376.788 1780.54 385.721 1659.22 375.847C1523.21 364.848 1360.81 367.772 1256.03 308.942C1138.3 242.808 1126.06 123.457 1179.09 23.9841C1232.13 -75.4885 1357.05 -160.668 1428.5 -240.82C1482.82 -301.926 1485.78 -371.262 1461.39 -431.019C1437.02 -490.94 1378.91 -545.591 1287.94 -579.737" stroke="#FFA14A" stroke-miterlimit="10"/>
<path d="M3023.91 914.252C2875.12 944.505 2708.88 935.329 2569.36 888.789C2429.58 842.4 2314.39 760.017 2263.64 661.142C2237.85 611.022 2237.3 556.323 2211.26 510.318C2169.82 436.557 2067.37 401.936 1973.44 384.623C1879.5 367.474 1775.69 372.748 1656.45 360.669C1520.37 347.017 1357.06 352.369 1249.69 295.184C1129.31 231.183 1111.36 112.12 1161.71 11.954C1212.07 -88.2119 1338.87 -173.499 1414.16 -251.173C1469.98 -308.761 1475.95 -374.502 1456.45 -431.714C1436.95 -488.926 1385.92 -542.561 1300.02 -577.277" stroke="#FFA14A" stroke-miterlimit="10"/>
<path d="M2979.89 919.419C2832.4 948.105 2668.63 937.901 2531.49 890.968C2394.34 844.036 2281.65 762.074 2232.81 663.912C2207.43 612.63 2208.48 556.834 2184.38 509.257C2147.13 435.684 2050.71 398.727 1961.42 378.351C1872.13 357.974 1771.92 354.522 1653.64 345.463C1516.31 334.875 1353.26 337.104 1243.07 281.388C1120.3 219.536 1096.16 100.735 1144.08 -0.111512C1192 -100.958 1320.2 -186.379 1399.82 -261.711C1456.9 -315.791 1465.89 -378.097 1451.5 -432.584C1437.11 -487.07 1392.89 -539.704 1312.06 -574.989" stroke="#FFA14A" stroke-miterlimit="10"/>
<path d="M2936.14 924.445C2790.18 951.575 2628.66 940.164 2493.86 893.003C2359.07 845.843 2248.91 763.976 2202.23 666.541C2177 614.084 2179.67 557.188 2157.49 508.038C2124.2 434.477 2034.28 395.372 1949.37 371.916C1864.7 348.474 1767.51 341.05 1651.03 330.099C1513.59 317.185 1349.68 321.516 1236.89 267.614C1111.75 207.751 1081.63 89.5553 1126.9 -12.1484C1172.16 -113.852 1301.97 -199.229 1385.66 -272.064C1444.01 -322.796 1455.99 -381.336 1446.7 -433.094C1437.4 -484.852 1399.98 -536.317 1324.22 -572.338" stroke="#FFA14A" stroke-miterlimit="10"/>
<path d="M2892.09 929.636C2747.41 955.36 2588.38 942.755 2456.22 895.049C2324.06 847.344 2216.41 765.735 2171.63 669.177C2146.81 615.555 2151.07 557.558 2130.56 506.982C2100.95 433.746 2017.53 392.327 1937.51 365.649C1857.48 338.972 1763.07 327.559 1648.39 314.714C1510.63 299.293 1346.08 305.908 1230.72 253.656C1103.21 195.947 1067.16 78.0272 1110.02 -24.5239C1152.88 -127.075 1283.55 -212.451 1372.05 -282.913C1431.16 -330.157 1446.89 -385.216 1442.44 -434.258C1438 -483.299 1407.62 -533.749 1336.91 -570.342" stroke="#FFA14A" stroke-miterlimit="10"/>
<path d="M2848.36 934.653C2705.22 958.819 2548.41 945.168 2418.62 897.07C2288.82 848.972 2183.93 767.635 2141.3 671.807C2116.65 616.843 2122.5 557.908 2103.91 505.756C2077.99 432.683 2001.06 388.946 1925.65 359.196C1850 329.431 1758.62 313.874 1645.72 299.298C1507.85 281.546 1342.7 290.282 1224.28 239.657C1094.39 184.107 1052.42 66.4664 1092.61 -36.7786C1132.8 -140.024 1264.61 -225.547 1357.65 -293.481C1417.78 -337.383 1436.73 -388.655 1437.39 -435.127C1438.04 -481.599 1414.43 -530.879 1348.77 -568.045" stroke="#FFA14A" stroke-miterlimit="10"/>
<path d="M2804.36 939.846C2662.51 962.438 2507.92 947.742 2380.74 899.263C2253.55 850.785 2151.19 769.544 2110.43 674.762C2086.18 618.632 2093.13 558.569 2076.93 505.029C2054.69 432.119 1984.49 386.076 1913.47 353.07C1842.44 320.065 1753.83 300.51 1642.7 284.201C1504.51 263.938 1338.73 274.962 1217.75 225.994C1085.52 172.439 1037.35 55.3952 1075.14 -48.6954C1112.93 -152.786 1245.38 -238.483 1343.19 -303.874C1403.86 -344.458 1426.53 -392.076 1432.24 -435.648C1437.97 -479.384 1421.12 -527.494 1360.54 -565.562" stroke="#FFA14A" stroke-miterlimit="10"/>
<path d="M2760.59 945.053C2620.26 966.248 2467.92 950.339 2343.11 901.303C2218.31 852.267 2118.92 771.477 2079.82 677.399C2055.97 620.103 2064.25 559.087 2049.99 503.804C2031.16 431.207 1967.68 382.855 1901.28 346.605C1834.88 310.355 1749.02 286.798 1639.67 268.755C1501.16 245.978 1334.78 259.129 1210.98 211.969C1076.38 160.578 1022.31 43.8163 1057.69 -60.9556C1092.82 -165.741 1225.93 -251.777 1328.97 -314.431C1390.43 -351.844 1416.53 -395.489 1427.33 -436.487C1438.13 -477.484 1428.04 -524.588 1372.49 -563.231" stroke="#FFA14A" stroke-miterlimit="10"/>
<path d="M2716.59 950.074C2577.56 969.692 2427.67 952.749 2305.47 903.332C2183.27 853.915 2086.4 773.221 2049.19 680.027C2025.76 621.398 2035.13 559.415 2023.02 502.563C2007.62 430.116 1950.85 379.453 1889.04 340.118C1827.23 300.784 1744.18 272.892 1636.58 253.277C1498.02 227.834 1330.76 243.429 1204.41 197.929C1067.48 148.539 1007.5 32.2256 1040.22 -73.2416C1072.96 -178.873 1206.47 -265.262 1314.49 -325.191C1376.25 -359.457 1406.51 -399.085 1422.14 -437.52C1437.76 -475.79 1434.65 -521.709 1384.38 -561.079" stroke="#FFA14A" stroke-miterlimit="10"/>
<path d="M2672.87 955.289C2535.37 973.341 2387.7 955.35 2267.86 905.538C2148.02 855.727 2054.13 775.321 2018.57 682.834C1995.54 623.037 2006.01 559.923 1996.04 501.667C1984.06 429.37 1934.23 376.406 1877.01 333.985C1819.81 291.399 1739.76 259.51 1633.68 238.144C1495.05 210.196 1326.92 228.073 1197.79 184.224C1058.51 137.003 992.636 21.1394 1022.74 -85.3514C1052.85 -191.842 1186.79 -278.748 1300.22 -335.591C1362.53 -366.694 1396.47 -402.492 1417.13 -438.019C1437.8 -473.545 1441.43 -518.456 1396.18 -558.402" stroke="#FFA14A" stroke-miterlimit="10"/>
<path d="M2629.14 960.516C2492.94 976.989 2347.73 957.96 2230.27 907.589C2112.8 857.219 2021.65 777.088 1987.95 685.651C1965.34 624.519 1976.63 560.588 1969.31 500.622C1960.49 428.626 1917.59 373.358 1864.96 327.682C1812.34 282.006 1735.08 245.772 1630.78 222.667C1491.86 192.034 1323.1 212.374 1191.43 170.19C1049.83 124.975 977.833 9.54933 1005.53 -97.6238C1033.23 -204.797 1167.14 -292.577 1285.96 -346.169C1348.35 -374.296 1386.41 -405.906 1412.13 -438.851C1437.61 -471.81 1448.2 -515.535 1407.95 -556.058" stroke="#FFA14A" stroke-miterlimit="10"/>
<path d="M2585.15 965.55C2450.22 980.606 2307.52 960.21 2192.38 909.609C2077.49 859.021 1989.12 778.836 1957.05 688.272C1934.84 625.97 1946.98 560.892 1942.04 499.531C1936.38 427.672 1900.63 370.111 1852.36 321.162C1804.09 272.214 1729.84 231.811 1627.29 207.129C1488.32 173.822 1318.96 196.463 1184.26 156.084C1040.34 112.879 962.472 -2.09416 987.77 -109.949C1012.82 -217.818 1146.73 -306.638 1271.16 -356.962C1333.88 -382.262 1376.06 -409.679 1406.57 -439.89C1437.08 -470.101 1454.37 -512.652 1419.14 -553.917" stroke="#FFA14A" stroke-miterlimit="10"/>
<path d="M2541.46 970.78C2407.83 984.253 2267.33 962.805 2154.79 911.822C2042.27 860.674 1956.88 780.777 1926.44 691.089C1904.89 627.463 1917.38 561.376 1915.06 498.467C1912.32 426.732 1883.72 366.874 1840.01 314.829C1796.31 262.784 1725.08 218.041 1624.28 191.782C1485.28 155.633 1315.04 180.895 1177.82 142.185C1031.6 100.992 947.867 -13.5274 970.523 -122.078C993.18 -230.629 1126.87 -320.833 1257.09 -367.378C1320.15 -389.849 1366.16 -412.917 1401.7 -440.377C1437.23 -467.837 1461.23 -509.38 1430.98 -551.224" stroke="#FFA14A" stroke-miterlimit="10"/>
<path d="M2497.48 975.994C2365.39 987.895 2227.11 965.394 2117.18 913.864C2007.25 862.334 1924.59 782.713 1895.79 693.735C1874.64 628.936 1887.98 561.699 1888.02 497.393C1888.19 425.782 1866.71 363.79 1827.58 308.479C1788.45 253.169 1720.25 204.082 1620.93 176.395C1481.89 137.567 1310.82 165.122 1170.82 128.236C1022.3 89.0573 932.701 -24.8414 952.739 -134.253C972.778 -243.664 1106.27 -335.419 1242.24 -378.017C1305.65 -397.821 1355.5 -416.537 1396.05 -441.244C1436.35 -465.965 1467.28 -506.485 1442.02 -548.909" stroke="#FFA14A" stroke-miterlimit="10"/>
<path d="M2453.8 981.054C2323.24 991.383 2187.17 967.827 2079.59 915.901C1972.01 863.975 1892.58 784.491 1865.15 696.541C1844.65 630.417 1858.09 562.155 1861.23 496.323C1864.32 424.836 1849.95 360.542 1815.37 302.128C1780.79 243.713 1715.36 190.265 1617.79 160.997C1478.98 119.337 1306.79 149.504 1164.29 114.292C1013.48 77.1301 918.053 -36.3117 935.701 -146.406C953.369 -256.666 1086.68 -350.138 1228.35 -388.456C1292.13 -405.755 1346.01 -419.771 1391.33 -441.903C1436.65 -464.034 1474.47 -503.2 1453.95 -546.383" stroke="#FFA14A" stroke-miterlimit="10"/>
<path d="M2409.84 986.282C2280.57 995.189 2146.97 970.426 2041.98 918.116C1936.99 865.807 1860.3 786.433 1834.5 699.359C1814.64 632.072 1828.44 562.632 1834.2 495.246C1840.2 423.716 1833.16 357.296 1803.12 295.773C1773.1 234.086 1710.69 176.284 1614.63 145.42C1475.81 100.91 1303.02 133.556 1157.77 100.172C1004.68 65.0289 903.191 -47.9691 918.472 -158.913C933.754 -269.858 1066.93 -365.546 1214.02 -399.428C1278.17 -414.221 1335.85 -423.712 1386.14 -442.922C1436.45 -462.297 1480.93 -500.454 1465.37 -544.219" stroke="#FFA14A" stroke-miterlimit="10"/>
<path d="M2366.14 991.524C2238.4 998.855 2107.02 973.036 2004.39 920.164C1901.74 867.458 1828.01 788.374 1803.84 702.014C1784.65 633.399 1798.55 562.932 1807.13 494.171C1816.03 422.765 1816.06 354.203 1790.59 289.239C1765.1 224.441 1705.7 162.283 1611.14 129.822C1472.56 82.3089 1298.68 117.572 1150.68 86.0191C995.315 52.8986 888.003 -59.4735 900.68 -171.279C913.358 -283.085 1046.38 -380.824 1199.09 -409.923C1263.61 -422.207 1325.05 -427.003 1380.34 -443.619C1435.63 -460.235 1486.74 -497.216 1476.17 -541.894" stroke="#FFA14A" stroke-miterlimit="10"/>
<path d="M2322.19 996.596C2195.75 1002.34 2066.57 975.46 1966.52 922.205C1866.48 868.949 1795.71 790.155 1772.91 704.661C1754.35 634.882 1768.39 563.056 1779.79 492.917C1791.36 421.455 1798.93 350.775 1777.74 282.684C1756.55 214.592 1700.39 148.086 1607.31 114.192C1468.98 63.8382 1294.02 101.558 1143.53 71.8509C985.921 40.5896 872.801 -71.1556 882.86 -183.658C892.918 -296.161 1026.37 -396.756 1184.41 -420.915C1249.55 -430.84 1314.76 -430.937 1374.77 -444.805C1434.78 -458.673 1492.77 -494.63 1487.14 -539.893" stroke="#FFA14A" stroke-miterlimit="10"/>
<path d="M2278.56 1001.82C2153.64 1006.15 2026.71 977.886 1928.98 924.399C1831.27 870.747 1763.71 792.091 1742.27 707.629C1724.37 636.52 1738.5 563.666 1752.96 492.162C1767.43 420.658 1782.04 347.831 1765.37 276.622C1748.69 205.414 1695.78 134.39 1603.95 99.049C1465.87 45.6868 1289.8 86.1957 1136.6 58.1592C976.717 29.0907 857.841 -82.3561 865.528 -195.542C873.214 -308.727 1006.85 -412.192 1169.93 -431.09C1235.96 -438.805 1304.39 -433.895 1369.36 -445C1434.33 -456.105 1498.93 -491.051 1498.23 -536.898" stroke="#FFA14A" stroke-miterlimit="10"/>
</g>
<defs>
<clipPath id="clip0_161_111">
<rect width="1920" height="990" fill="white"/>
</clipPath>
</defs>
</svg>
